<?xml version="1.0" standalone="no"?>
<!DOCTYPE svg PUBLIC "-//W3C//DTD SVG 20010904//EN"
 "http://www.w3.org/TR/2001/REC-SVG-20010904/DTD/svg10.dtd">
<svg version="1.0" xmlns="http://www.w3.org/2000/svg"
 width="600.000000pt" height="600.000000pt" viewBox="0 0 600.000000 600.000000"
 preserveAspectRatio="xMidYMid meet">
<metadata>
Created by potrace 1.14, written by Peter Selinger 2001-2017
</metadata>
<g transform="translate(0.000000,600.000000) scale(0.100000,-0.100000)"
fill="#000000" stroke="none">
<path d="M2765 5380 c-8 -13 5 -13 25 0 13 8 13 10 -2 10 -9 0 -20 -4 -23 -10z"/>
<path d="M3033 5353 c4 -6 1 -14 -5 -16 -7 -3 0 -6 16 -6 16 -1 27 0 25 2 -2
1 -13 9 -23 17 -11 8 -17 10 -13 3z"/>
<path d="M3115 5340 c-3 -5 1 -13 10 -16 22 -9 29 1 11 15 -10 8 -16 9 -21 1z"/>
<path d="M3217 5279 c7 -7 15 -10 18 -7 3 3 -2 9 -12 12 -14 6 -15 5 -6 -5z"/>
<path d="M3320 5270 c0 -5 10 -15 23 -21 22 -12 22 -12 3 10 -21 23 -26 26
-26 11z"/>
<path d="M3665 5260 c3 -5 11 -10 16 -10 6 0 7 5 4 10 -3 6 -11 10 -16 10 -6
0 -7 -4 -4 -10z"/>
<path d="M2744 5230 c-11 -4 -38 -7 -60 -6 -23 1 -53 -5 -72 -16 -18 -10 -40
-18 -50 -18 -27 0 -96 -27 -100 -39 -2 -6 -10 -11 -17 -11 -7 0 -15 -7 -19
-15 -8 -22 12 -18 37 8 13 12 30 21 38 19 9 -1 29 3 45 9 16 7 43 13 59 14 17
1 57 7 90 14 33 6 72 14 88 17 15 3 27 11 27 18 0 14 -37 18 -66 6z"/>
<path d="M2820 5220 c0 -5 5 -10 10 -10 6 0 10 5 10 10 0 6 -4 10 -10 10 -5 0
-10 -4 -10 -10z"/>
<path d="M3710 5222 c0 -4 12 -19 27 -33 20 -18 23 -19 13 -4 -24 32 -40 47
-40 37z"/>
<path d="M3600 5176 c0 -13 20 -26 41 -26 14 0 1 18 -22 30 -15 8 -19 7 -19
-4z"/>
<path d="M3450 5165 c0 -6 45 -25 73 -30 27 -6 20 14 -9 25 -27 11 -64 13 -64
5z"/>
<path d="M3654 5127 c10 -7 31 -22 46 -34 44 -36 48 -27 6 12 -21 19 -46 35
-55 34 -13 0 -13 -2 3 -12z"/>
<path d="M2590 5110 c0 -5 5 -10 11 -10 5 0 7 5 4 10 -3 6 -8 10 -11 10 -2 0
-4 -4 -4 -10z"/>
<path d="M3656 5085 c4 -8 10 -15 15 -15 4 0 6 7 3 15 -4 8 -10 15 -15 15 -4
0 -6 -7 -3 -15z"/>
<path d="M2595 5065 c-5 -2 -23 -6 -38 -9 -15 -4 -26 -10 -23 -15 7 -10 64 -2
72 11 7 11 3 16 -11 13z"/>
<path d="M3706 5051 c-19 -7 -19 -8 1 -27 12 -10 38 -32 58 -49 21 -16 54 -45
74 -62 20 -18 40 -33 44 -33 5 0 5 -4 2 -10 -3 -5 0 -10 9 -10 8 0 17 6 20 13
3 6 4 3 1 -9 -4 -15 7 -30 46 -62 61 -49 146 -153 155 -188 3 -13 10 -24 15
-24 5 0 9 -10 9 -23 0 -13 14 -39 30 -57 17 -18 30 -30 30 -25 0 5 -7 16 -16
26 -16 18 -11 44 7 34 5 -4 9 -2 9 4 0 6 8 8 18 5 10 -4 13 -2 7 3 -6 4 -10
22 -10 40 0 24 3 29 13 21 17 -15 16 45 -3 102 -8 25 -17 61 -20 82 -4 26 -15
44 -43 64 -37 29 -40 30 -66 33 -7 0 -20 14 -27 30 -8 15 -30 41 -49 57 -31
25 -33 26 -15 4 11 -14 27 -30 35 -37 13 -11 12 -12 -5 -6 -11 4 -29 17 -40
30 -11 13 -27 23 -35 23 -11 -1 -10 -4 4 -15 11 -8 17 -18 13 -21 -3 -3 -18 6
-34 21 -33 31 -82 59 -91 51 -3 -3 -3 -7 -1 -9 2 -2 21 -16 42 -31 20 -16 37
-33 37 -38 0 -5 -14 2 -31 16 -35 30 -49 33 -49 9 0 -15 -2 -14 -19 3 -10 10
-17 22 -15 25 3 6 -80 51 -88 48 -2 0 -12 -4 -22 -8z m494 -481 c0 -5 -2 -10
-4 -10 -3 0 -8 5 -11 10 -3 6 -1 10 4 10 6 0 11 -4 11 -10z"/>
<path d="M3920 5040 c0 -12 50 -33 58 -25 4 3 -4 8 -16 12 -12 3 -22 9 -22 14
0 5 -4 9 -10 9 -5 0 -10 -5 -10 -10z"/>
<path d="M2485 5031 c-3 -6 -4 -20 -2 -33 2 -13 2 -17 0 -10 -4 11 -35 18 -58
12 -5 -1 -16 -3 -23 -3 -8 0 -10 -7 -6 -16 15 -39 15 -46 0 -27 -8 10 -17 24
-20 30 -3 7 -12 3 -23 -9 -19 -21 -53 -27 -65 -10 -5 6 -8 5 -8 -3 0 -7 -4
-11 -8 -8 -5 3 -16 -4 -25 -14 -16 -19 -15 -19 15 -13 22 4 29 3 24 -6 -4 -6
-12 -9 -17 -6 -13 9 -11 -9 4 -24 10 -11 7 -13 -14 -8 -16 4 -39 -1 -62 -13
-20 -11 -47 -20 -59 -21 -13 0 -17 -3 -10 -6 18 -7 14 -23 -7 -23 -10 0 -31
-12 -46 -26 -33 -31 -75 -49 -75 -32 0 14 -38 -20 -52 -46 -7 -13 -6 -21 3
-27 10 -6 11 -9 2 -9 -12 0 -53 -69 -53 -90 0 -6 -10 -24 -21 -40 -12 -16 -19
-36 -16 -44 4 -9 3 -16 -2 -16 -5 0 -11 -8 -15 -17 -3 -10 -11 -31 -17 -48
-59 -167 -109 -536 -86 -640 3 -16 7 -78 8 -137 l1 -108 30 0 c30 0 30 -1 25
-42 -4 -31 2 -19 22 41 37 116 51 116 51 1 l0 -92 -25 4 c-22 5 -25 2 -25 -22
0 -22 6 -29 40 -40 l41 -14 -7 -52 c-3 -31 -2 -59 5 -71 9 -16 10 -15 11 9 0
54 73 58 101 6 5 -10 17 -18 26 -18 10 0 14 -6 10 -19 -6 -25 5 -41 33 -46 12
-2 25 -7 29 -11 3 -4 -2 -4 -11 -1 -13 5 -18 1 -18 -12 0 -11 6 -22 13 -24 7
-3 5 -6 -5 -6 -10 -1 -18 -7 -18 -13 0 -7 -9 -2 -20 12 -14 17 -18 34 -14 53
6 27 -8 38 -22 16 -3 -6 -17 -9 -30 -6 -13 2 -21 0 -18 -4 3 -5 0 -9 -5 -9 -6
0 -11 -7 -11 -15 0 -8 -3 -14 -7 -14 -23 4 -32 -3 -26 -18 6 -15 4 -16 -9 -5
-13 10 -17 10 -21 0 -3 -7 -11 2 -20 22 -9 19 -16 30 -17 23 -1 -32 105 -233
122 -233 5 0 -3 17 -16 37 -24 34 -24 39 -11 60 13 20 13 23 1 23 -8 0 -17 -6
-19 -12 -4 -8 -6 -7 -6 3 -1 22 25 45 32 27 2 -7 8 -10 12 -6 4 4 3 20 -3 36
-9 26 -7 31 12 40 15 7 25 6 33 -3 6 -7 9 -16 6 -19 -4 -3 -1 -6 5 -6 7 0 11
-3 11 -7 -4 -22 4 -29 30 -31 16 -1 32 2 36 8 4 6 -1 7 -12 3 -14 -5 -15 -3
-7 6 7 7 38 14 70 15 36 2 58 7 57 14 -2 6 6 10 17 9 11 -1 18 -7 16 -13 -3
-7 3 -11 12 -10 9 2 23 -4 30 -13 12 -14 13 -14 7 4 -4 15 1 12 20 -10 15 -16
23 -24 19 -16 -5 11 -3 13 9 8 10 -3 17 -2 17 3 0 5 -8 11 -17 13 -10 3 -3 5
15 4 31 -1 43 -12 21 -19 -6 -2 8 -3 30 -3 23 0 41 2 41 5 0 3 15 6 33 8 17 1
43 4 57 5 14 1 27 4 30 7 13 15 81 49 111 56 55 12 59 13 59 3 0 -5 7 -9 15
-9 16 0 54 78 62 130 4 19 10 37 14 40 16 11 40 154 34 202 -13 96 -87 168
-214 210 -74 24 -274 41 -390 33 -255 -19 -413 -90 -436 -197 -4 -15 -10 -28
-15 -28 -5 0 1 26 12 58 18 49 29 62 72 90 104 66 281 104 479 102 56 -1 117
3 135 9 19 6 32 6 32 0 0 -5 -11 -9 -25 -9 -14 0 -25 -4 -25 -10 0 -5 15 -9
33 -9 41 2 138 -25 204 -57 54 -26 115 -81 138 -124 23 -44 28 -129 11 -202
-9 -37 -13 -74 -10 -81 7 -20 -15 -74 -25 -59 -5 8 -20 -13 -41 -60 -48 -103
-51 -116 -31 -114 9 0 15 -4 14 -11 -2 -8 4 -10 13 -6 17 6 17 1 0 -92 -2 -11
-1 -24 1 -28 8 -13 33 14 33 34 0 11 4 19 8 19 11 0 8 -68 -4 -80 -7 -7 -18
-3 -33 11 -17 17 -25 18 -36 9 -8 -7 -15 -21 -15 -31 0 -10 -5 -21 -11 -24 -5
-4 -9 -11 -7 -17 3 -9 -92 -118 -104 -118 -13 0 -15 40 -2 51 8 6 11 15 8 20
-3 5 2 9 12 9 14 0 14 3 4 15 -12 14 -16 13 -42 -12 -16 -15 -24 -29 -18 -31
8 -3 8 -8 0 -17 -8 -9 -6 -14 5 -19 13 -5 13 -9 3 -28 -7 -12 -19 -28 -25 -36
-9 -9 -10 -19 -3 -32 13 -24 13 -50 0 -50 -5 0 -7 7 -4 15 9 22 -5 18 -28 -7
-11 -13 -17 -18 -14 -11 4 7 -1 9 -15 6 -16 -4 -17 -8 -7 -14 8 -5 9 -9 2 -9
-7 0 -14 -9 -17 -21 -3 -12 -10 -18 -16 -14 -6 3 -14 0 -17 -9 -3 -8 -11 -13
-18 -10 -7 3 -18 -2 -25 -10 -7 -8 -18 -13 -25 -10 -7 3 -21 -7 -30 -21 -10
-16 -23 -24 -32 -21 -8 3 -19 -4 -25 -17 -14 -25 -26 -37 -57 -55 -18 -10 -22
-10 -22 3 0 17 -45 21 -55 5 -4 -6 -11 -8 -16 -5 -5 4 -9 -3 -9 -14 0 -11 -5
-23 -10 -26 -7 -4 -7 -12 0 -25 14 -25 13 -30 -5 -24 -8 4 -13 15 -11 27 2 12
-5 34 -15 49 -24 33 -24 35 3 34 13 -1 24 6 26 15 2 11 -5 15 -28 15 -16 0
-30 -4 -30 -8 0 -5 -6 -6 -12 -2 -8 5 -7 1 2 -10 13 -17 12 -18 -5 -14 -20 3
-29 37 -13 48 10 8 -2 51 -13 44 -12 -7 -11 7 0 25 6 10 3 19 -11 30 -13 12
-21 33 -24 66 -8 81 -11 99 -23 128 -6 16 -11 39 -11 52 0 13 -6 26 -12 28
-10 4 -10 6 0 6 18 1 14 31 -5 31 -14 0 -14 2 2 20 16 18 17 22 3 38 -35 38
-99 184 -119 268 -11 49 -24 101 -27 116 -7 26 -9 27 -32 15 -13 -7 -31 -24
-39 -39 -14 -24 -13 -37 14 -155 24 -102 30 -151 30 -244 0 -93 3 -119 16
-132 24 -24 56 -167 69 -307 22 -260 46 -350 135 -516 33 -62 51 -105 45 -109
-6 -4 -8 -21 -4 -40 10 -57 -8 -75 -74 -75 -37 0 -66 6 -81 17 -23 15 -25 15
-38 -3 -11 -15 -17 -16 -31 -7 -17 10 -19 27 -11 68 5 23 -4 23 -89 4 -39 -9
-58 -19 -74 -41 -19 -27 -24 -29 -62 -24 -54 8 -55 8 -169 -5 -54 -6 -105 -8
-113 -5 -8 3 -14 19 -14 38 l0 33 -38 -42 c-45 -48 -46 -49 -217 -63 -176 -15
-175 -14 -175 -51 0 -17 5 -39 10 -49 6 -11 11 -93 12 -182 1 -135 -1 -168
-15 -195 -9 -18 -17 -41 -17 -51 0 -25 -26 -49 -33 -30 -4 10 -8 9 -18 -4 -8
-9 -37 -26 -65 -37 -55 -21 -90 -20 -341 9 -51 6 -97 9 -102 6 -7 -5 2 -48 35
-163 2 -7 8 -13 15 -13 8 0 9 18 4 58 -9 82 -1 87 123 78 115 -8 143 -24 103
-57 -14 -11 -37 -23 -53 -26 -15 -3 -30 -14 -33 -24 -3 -10 -20 -31 -38 -46
-44 -40 -245 -258 -288 -313 -19 -25 -40 -56 -47 -70 -7 -14 -16 -32 -21 -40
-6 -8 -26 -43 -45 -78 l-36 -63 0 -180 0 -179 1579 0 c1496 0 1580 1 1584 18
4 16 5 16 6 0 1 -15 11 -18 56 -18 48 0 55 2 55 20 0 11 5 20 10 20 6 0 10 -9
10 -20 0 -20 7 -20 1350 -20 l1350 0 0 331 c0 217 -3 328 -10 324 -6 -3 -10 3
-10 14 0 12 5 21 10 21 6 0 10 30 10 70 0 56 -3 70 -15 70 -8 0 -15 5 -15 11
0 6 -6 9 -13 6 -7 -3 -21 1 -31 8 -10 8 -25 11 -34 8 -9 -4 -13 -2 -9 3 3 6
-12 15 -34 21 -21 5 -39 6 -39 2 0 -5 5 -9 11 -9 5 0 8 -4 4 -9 -3 -6 -19 -4
-40 5 -19 8 -48 14 -64 14 -16 0 -33 4 -36 10 -3 5 -16 10 -27 10 -29 0 -17 9
15 12 28 2 35 12 17 23 -5 3 -10 2 -10 -3 0 -6 -10 -8 -21 -5 -15 4 -27 -1
-40 -18 -19 -25 -24 -18 -19 26 1 16 -1 18 -11 8 -10 -10 -17 -9 -32 5 -19 16
-20 16 -8 -6 6 -12 8 -22 4 -22 -4 -1 3 -10 17 -22 21 -17 22 -20 5 -15 -65
19 -74 19 -71 0 2 -10 -4 -21 -13 -25 -14 -6 -14 -7 2 -7 9 -1 17 -6 17 -12 0
-5 -4 -8 -9 -4 -5 3 -12 -3 -14 -12 -4 -14 -5 -13 -6 4 -1 20 -21 45 -21 25 0
-5 -7 -9 -15 -9 -10 0 -12 4 -6 10 5 5 8 15 7 21 -2 6 -1 8 1 4 3 -5 9 -8 14
-8 6 0 8 4 4 9 -3 5 -1 13 5 16 6 4 9 3 8 -2 -2 -4 1 -9 7 -10 8 -3 10 10 6
48 -1 8 -6 8 -16 -1 -23 -19 -18 -4 6 18 20 19 20 19 -20 36 -23 9 -41 18 -41
22 0 3 5 2 12 -2 7 -4 8 -3 4 5 -4 6 -16 9 -27 6 -11 -4 -19 -2 -19 5 0 6 -5
10 -11 8 -6 -2 -10 -7 -10 -11 1 -4 3 -6 5 -4 3 1 15 -8 28 -19 13 -12 32 -26
43 -32 16 -9 17 -11 3 -12 -9 0 -19 -6 -21 -12 -3 -7 -6 -3 -6 9 -1 16 -6 21
-16 17 -8 -4 -13 -9 -11 -13 3 -4 0 -13 -5 -21 -8 -11 -9 -8 -6 13 3 19 0 27
-10 27 -10 0 -12 -6 -8 -19 4 -14 0 -21 -13 -25 -26 -9 -52 3 -52 22 0 12 3
13 12 4 25 -25 43 -14 42 24 -2 38 -9 52 -21 40 -4 -4 -2 -11 5 -15 10 -6 10
-11 -3 -21 -13 -11 -15 -9 -15 14 0 25 -10 30 -57 29 -7 -1 -13 6 -13 14 0 8
-4 12 -10 8 -5 -3 -21 -3 -35 1 -22 5 -26 11 -22 31 3 16 -2 27 -15 34 -18 9
-19 8 -13 -11 6 -19 4 -21 -16 -15 -30 10 -50 36 -38 51 5 7 4 11 -5 11 -8 0
-13 -8 -11 -19 2 -10 0 -18 -6 -18 -5 0 -9 5 -9 11 0 5 -3 8 -7 6 -5 -3 -16 4
-26 13 -18 18 -18 18 2 25 12 3 19 11 15 16 -4 6 -11 6 -20 -2 -11 -9 -18 -8
-31 2 -15 12 -16 12 -11 -3 5 -11 0 -18 -12 -21 -11 -3 -19 -2 -18 2 0 3 -1 8
-2 11 -10 26 -6 38 11 35 10 -2 19 0 19 5 0 7 -25 22 -42 24 -3 1 -10 4 -14 8
-13 13 -26 9 -21 -6 3 -8 -1 -17 -9 -20 -8 -3 -14 0 -13 7 4 30 -2 39 -21 34
-13 -3 -20 0 -20 8 0 8 -5 17 -12 21 -7 4 -8 3 -4 -4 4 -7 3 -12 -3 -12 -5 0
-11 10 -13 23 -3 24 -22 29 -52 14 -14 -7 -22 -5 -30 5 -6 8 -16 13 -23 11 -6
-2 -14 1 -18 6 -6 11 6 15 35 12 13 -1 13 0 0 12 -8 7 -21 19 -29 27 -12 13
-13 13 -7 -3 11 -33 -6 -41 -19 -9 -9 21 -24 34 -51 42 -32 11 -34 14 -19 22
13 8 24 5 46 -11 15 -11 34 -18 42 -15 8 3 23 -6 35 -20 11 -14 26 -26 33 -26
7 0 20 -6 28 -14 9 -7 28 -16 43 -20 l27 -6 -6 67 c-3 38 -9 75 -14 84 -4 8
-60 32 -127 53 -127 40 -149 40 -172 -4 -15 -27 -12 -40 8 -40 18 -1 52 -22
52 -34 0 -3 -6 -5 -12 -3 -14 2 -14 0 -4 -51 4 -23 2 -31 -6 -26 -6 4 -23 7
-37 6 -21 0 -27 5 -28 21 -1 12 1 17 5 11 4 -6 17 -13 30 -16 17 -5 22 -2 22
12 0 19 -25 50 -39 50 -4 0 -14 11 -21 25 -13 25 -74 68 -97 68 -7 0 -11 5
-10 11 1 6 -6 10 -15 10 -10 -1 -15 2 -12 7 7 11 -62 39 -95 38 -14 0 -20 -3
-13 -6 6 -2 9 -10 6 -15 -4 -6 -3 -9 2 -5 5 3 18 -1 29 -9 16 -12 16 -14 3
-14 -27 0 -31 -19 -6 -29 13 -6 17 -10 9 -10 -11 -1 -10 -5 5 -16 18 -14 18
-16 2 -28 -15 -12 -15 -14 -1 -23 13 -8 12 -10 -6 -10 -22 0 -25 5 -15 30 3 9
10 13 15 10 5 -3 9 -1 9 5 0 5 -9 13 -20 16 -11 4 -18 11 -15 16 4 5 1 9 -4 9
-15 0 -14 30 2 31 6 0 2 4 -9 9 -12 4 -24 18 -27 29 -4 16 0 21 16 22 18 1 18
2 4 6 -9 2 -15 9 -12 14 4 5 2 9 -4 9 -5 0 -12 -6 -14 -12 -4 -10 -8 -9 -16 2
-6 9 -7 17 0 21 6 3 3 12 -7 20 -16 12 -17 12 -9 -1 8 -13 7 -13 -14 0 -12 8
-29 27 -38 41 -16 26 -15 29 20 82 126 189 193 404 217 697 18 208 22 245 31
280 5 19 8 60 8 90 -1 30 -4 44 -6 30 -3 -14 -8 -29 -12 -35 -4 -5 -9 -30 -10
-55 -1 -25 -7 -49 -12 -54 -5 -6 -9 -55 -9 -110 -1 -68 -5 -107 -14 -118 -7
-10 -15 -15 -18 -12 -3 2 -8 -2 -12 -11 -3 -9 -2 -14 2 -11 13 8 7 -217 -6
-241 -7 -12 -12 -36 -12 -55 0 -47 -49 -168 -69 -169 -9 0 -11 -3 -4 -5 8 -4
8 -12 -2 -30 -16 -31 -51 -57 -65 -49 -11 7 -12 4 -14 -37 -1 -15 -5 -30 -9
-34 -4 -4 -7 -16 -7 -26 0 -11 -7 -33 -16 -49 -15 -29 -16 -30 -31 -12 -10 12
-13 13 -11 3 5 -17 -20 -45 -41 -45 -8 0 -16 -6 -19 -13 -3 -9 3 -11 22 -6 20
5 26 2 26 -11 0 -9 -7 -24 -16 -33 -15 -15 -16 -14 -10 6 5 13 3 22 -3 22 -6
0 -11 -4 -11 -10 0 -20 -3 -25 -22 -39 -16 -11 -17 -15 -7 -22 9 -6 10 -9 2
-9 -6 0 -14 -13 -18 -30 -4 -16 -11 -30 -16 -30 -5 0 -9 -6 -9 -12 0 -7 21 8
46 34 48 51 54 55 54 35 0 -6 23 -50 50 -97 61 -104 85 -164 106 -275 20 -98
14 -131 -42 -225 -18 -30 -34 -62 -36 -70 -4 -18 -23 -40 -36 -40 -4 0 -9 82
-10 183 -2 194 -9 304 -22 312 -11 7 -18 -16 -15 -48 2 -15 -1 -27 -6 -27 -6
0 -8 -13 -6 -30 3 -17 0 -34 -8 -40 -20 -16 -26 -50 -9 -50 11 0 12 -4 4 -19
-5 -11 -8 -36 -4 -55 3 -20 2 -41 -2 -48 -4 -6 -8 -31 -10 -55 -1 -24 -7 -50
-14 -58 -8 -10 -8 -14 2 -18 10 -4 9 -9 -4 -20 -10 -8 -18 -26 -18 -41 0 -14
-4 -26 -9 -26 -5 0 -12 -13 -16 -30 -4 -16 -13 -30 -21 -30 -8 0 -14 -10 -14
-24 0 -17 -10 -30 -35 -45 -19 -11 -35 -24 -35 -29 0 -5 -11 -15 -25 -22 -14
-7 -25 -20 -25 -27 0 -8 -4 -12 -9 -9 -4 3 -6 -6 -3 -19 3 -20 -4 -29 -43 -54
-27 -17 -52 -28 -56 -25 -5 3 -9 -2 -9 -10 0 -10 -7 -13 -21 -11 -12 3 -24 6
-26 9 -8 8 -31 -18 -26 -30 2 -6 -8 -23 -23 -38 -21 -20 -29 -24 -36 -14 -5 9
-8 7 -8 -7 0 -17 -2 -17 -10 -5 -8 13 -10 13 -10 -1 0 -9 -7 -20 -16 -23 -9
-3 -14 -13 -11 -21 4 -9 1 -12 -9 -8 -9 3 -14 -1 -14 -12 0 -12 -5 -15 -21
-10 -13 4 -27 1 -39 -10 -11 -10 -26 -14 -38 -11 -18 6 -38 -15 -34 -36 1 -5
-9 -8 -23 -8 -14 0 -25 -4 -25 -10 0 -5 -7 -6 -17 -3 -10 4 -14 2 -10 -4 5 -8
-46 -10 -110 -4 -6 0 -11 14 -11 30 1 15 -2 33 -6 40 -4 6 -1 11 8 11 10 0 16
-9 16 -22 1 -19 5 -15 22 17 26 51 23 48 47 35 25 -13 27 -7 6 14 -21 21 -3
56 38 77 18 9 38 27 44 40 9 18 13 19 13 7 0 -11 5 -15 14 -12 8 3 17 0 22 -7
4 -8 3 -10 -4 -5 -7 4 -12 2 -12 -4 0 -13 43 -3 48 11 2 5 13 14 24 20 18 10
19 8 13 -13 -4 -12 -13 -26 -19 -30 -6 -5 -2 -8 12 -8 18 0 22 6 22 28 0 15 6
34 13 42 10 12 9 12 -5 1 -15 -11 -18 -11 -18 3 0 10 8 16 23 16 17 0 19 2 8
9 -14 9 -39 0 -74 -29 -15 -12 -20 -12 -26 -1 -7 11 -10 11 -14 0 -4 -11 -6
-11 -6 -1 -1 7 -5 10 -11 7 -5 -3 -10 -1 -10 4 0 6 7 11 15 11 8 0 15 4 15 9
0 13 -26 32 -33 24 -4 -3 -7 -1 -7 4 0 6 -8 10 -17 8 -29 -4 -36 6 -16 22 17
14 17 14 -1 9 -13 -4 -17 -2 -13 7 4 10 -2 13 -21 10 l-27 -5 30 21 c17 11 35
21 41 21 7 0 14 7 18 15 3 8 12 15 20 15 8 0 17 6 19 13 3 6 6 2 6 -11 1 -13
5 -20 11 -17 6 3 10 1 10 -5 0 -7 5 -6 14 2 8 7 11 18 8 23 -2 6 1 5 8 -2 10
-9 10 -16 2 -26 -6 -7 -9 -23 -5 -35 3 -15 0 -24 -12 -28 -13 -5 -14 -9 -4
-15 20 -12 29 -1 29 36 0 18 7 40 15 49 9 9 11 17 5 21 -17 10 -11 25 7 18 10
-4 14 -2 9 5 -8 14 30 36 46 26 7 -4 8 -3 4 4 -4 7 4 22 19 36 19 18 24 31 21
51 -4 22 -2 26 17 23 17 -2 21 1 19 16 -3 14 1 17 13 12 14 -5 16 -2 12 13 -3
11 0 22 7 24 7 3 4 12 -8 26 -19 21 -19 21 2 21 11 0 23 6 25 13 4 9 8 8 16
-3 10 -13 14 -11 31 10 24 30 25 40 5 40 -8 0 -15 -7 -15 -15 0 -8 -4 -15 -10
-15 -20 0 -10 27 15 40 14 7 25 20 25 27 0 29 26 44 57 32 22 -8 26 -8 16 2
-20 20 -15 31 8 19 18 -10 20 -9 17 7 -2 10 -12 18 -24 17 -12 0 -20 6 -20 17
0 10 3 16 6 15 18 -11 44 14 46 43 1 18 10 38 20 45 16 12 16 13 0 19 -17 7
-83 -47 -79 -64 2 -4 -12 -20 -29 -36 -17 -15 -42 -39 -55 -52 -20 -21 -23
-22 -17 -5 4 14 4 16 -4 5 -6 -8 -8 -20 -5 -27 3 -7 -7 -15 -25 -19 -16 -3
-39 -17 -51 -31 -12 -14 -28 -23 -36 -20 -7 2 -16 -2 -19 -11 -4 -8 -12 -13
-20 -10 -8 3 -22 -3 -31 -13 -16 -18 -43 -17 -56 2 -3 5 -12 -3 -19 -17 -8
-15 -19 -24 -28 -20 -7 3 -28 5 -47 5 -36 0 -50 23 -33 54 7 13 5 22 -10 36
-11 10 -23 16 -28 12 -4 -4 -4 -2 -1 5 4 6 3 13 -2 15 -4 1 -12 14 -16 27 -5
16 -4 21 4 17 7 -4 11 1 11 13 0 23 -19 27 -39 9 -11 -11 -12 -10 -6 2 8 13 7
13 -8 1 -11 -8 -15 -21 -12 -32 4 -11 8 -30 9 -43 1 -14 9 -32 16 -41 11 -14
10 -17 -9 -22 -21 -5 -21 -7 -5 -24 10 -11 14 -22 11 -25 -4 -4 -9 1 -13 10
-3 9 -10 16 -16 16 -5 0 -7 -4 -3 -9 8 -14 -15 -25 -27 -13 -8 8 -17 8 -30 1
-15 -8 -20 -5 -28 16 -6 15 -10 31 -10 36 0 6 -4 7 -10 4 -17 -10 -11 11 10
38 24 30 27 77 5 77 -8 0 -15 7 -15 15 0 8 -5 15 -11 15 -7 0 -9 10 -5 27 5
16 3 29 -5 33 -8 5 -5 10 10 15 11 3 21 11 21 16 0 5 4 9 10 9 5 0 7 -7 4 -15
-4 -10 0 -15 13 -15 25 0 26 31 1 38 -29 7 -16 27 20 30 20 2 32 9 32 18 0 18
36 18 43 0 3 -8 16 -16 28 -18 12 -2 25 -13 30 -25 7 -20 5 -21 -28 -16 -33 6
-35 5 -28 -17 4 -13 3 -20 -2 -17 -5 3 -14 -7 -20 -24 -7 -17 -7 -29 -2 -29 5
0 12 7 15 15 5 11 11 12 25 4 13 -6 19 -6 19 1 0 5 4 10 8 10 4 0 9 -19 11
-42 1 -23 4 -44 6 -47 3 -2 0 -10 -6 -18 -6 -7 -9 -14 -5 -14 23 -5 32 -4 43
4 7 5 17 6 22 3 9 -6 61 34 61 47 0 3 -8 4 -17 3 -10 -2 -18 -9 -18 -16 0 -7
-6 -15 -12 -18 -8 -2 -13 5 -13 17 0 25 -9 27 -25 5 -9 -13 -11 -9 -9 24 1 31
-1 39 -12 35 -10 -3 -12 0 -8 10 3 8 14 17 25 20 15 4 23 -1 30 -21 13 -35 28
-43 62 -36 23 5 29 2 34 -15 6 -22 18 -27 28 -12 3 5 -2 17 -11 26 -13 12 -14
16 -3 14 26 -4 108 23 113 38 3 8 1 11 -4 8 -14 -9 -12 19 2 33 7 7 8 12 2 12
-5 0 -3 4 5 9 12 8 12 13 -2 35 -14 21 -15 24 -2 20 9 -4 18 1 21 11 5 13 9
14 15 4 4 -8 4 -16 -1 -19 -5 -3 4 -18 21 -33 17 -15 29 -20 25 -12 -3 8 -1
15 4 15 19 0 10 18 -11 23 -12 3 -18 10 -14 16 4 7 14 5 31 -5 13 -9 24 -12
24 -8 0 5 5 2 11 -6 8 -12 9 -10 7 10 -2 17 1 24 11 22 12 -3 12 0 2 12 -17
20 -6 53 12 38 10 -8 23 0 55 34 24 24 47 44 53 44 6 0 7 5 4 10 -4 6 6 10 22
10 l28 1 -25 14 c-17 10 -20 14 -9 15 9 0 19 9 22 19 3 14 1 18 -9 14 -8 -3
-14 1 -14 8 -1 10 -4 9 -14 -3 -12 -17 -26 -15 -26 3 0 11 56 40 62 33 3 -3 8
2 12 11 4 11 2 14 -6 9 -7 -4 -8 -3 -4 5 4 6 10 24 13 39 3 15 6 34 8 42 2 8
4 18 4 22 1 4 7 5 15 2 8 -3 15 4 18 18 4 21 1 24 -22 22 -23 -1 -27 2 -26 22
1 13 6 24 11 23 6 0 9 -8 7 -17 -2 -12 2 -10 13 6 9 13 14 29 11 37 -6 17 9
20 19 5 4 -6 12 -4 21 5 9 8 24 15 35 15 22 0 23 4 8 32 -9 17 -6 25 16 48 21
22 26 35 21 54 -3 14 -11 26 -17 26 -6 0 -8 4 -5 8 3 5 6 25 8 45 1 27 5 34
14 26 15 -13 39 25 30 47 -3 8 1 17 9 20 8 4 12 11 8 17 -3 6 -6 39 -5 74 1
35 -2 63 -8 63 -20 0 -50 44 -44 64 4 12 3 18 -1 14 -8 -8 -42 18 -116 88 -26
24 -49 44 -52 44 -6 0 -43 30 -106 87 -50 45 -88 59 -111 42 -13 -9 -13 -11 0
-16 22 -8 100 -91 100 -107 0 -10 -11 -9 -51 4 -58 20 -130 85 -134 121 -2 13
-8 36 -13 50 -6 15 -8 30 -5 33 4 3 -2 15 -13 27 -10 12 -19 24 -19 28 0 3 -3
5 -7 3 -5 -1 -8 9 -8 23 0 22 -2 24 -25 15 -21 -8 -30 -6 -47 10 -35 32 -49
22 -55 -37 -3 -24 5 -44 33 -83 35 -49 58 -65 52 -36 -5 24 16 20 29 -5 19
-37 16 -113 -5 -140 -16 -19 -32 -23 -98 -28 -63 -5 -87 -12 -119 -34 -37 -24
-47 -26 -105 -22 -93 8 -91 7 -140 41 -48 33 -88 50 -105 45 -5 -2 -19 -5 -30
-6 -11 -1 -19 -7 -18 -13 1 -5 -5 -9 -15 -8 -13 2 -16 13 -15 47 1 58 10 77
50 112 28 25 42 44 66 91 1 3 -14 22 -34 43 -31 31 -35 42 -28 61 5 12 15 25
23 28 15 6 23 33 30 99 1 17 8 54 14 83 7 28 17 76 24 105 6 28 12 75 12 102
1 28 5 56 10 63 4 7 5 16 2 19 -9 9 14 44 25 37 6 -3 21 -1 32 5 12 6 35 15
50 21 16 5 25 15 22 20 -5 8 -11 7 -21 -1 -12 -10 -16 -8 -21 10 -4 14 -9 18
-17 12 -15 -12 -68 -2 -59 12 4 7 -8 8 -35 3 -33 -5 -42 -3 -42 8 0 8 7 16 15
20 8 3 15 1 15 -4 0 -6 5 -10 11 -10 5 0 7 5 4 10 -4 7 2 9 17 6 12 -3 64 -2
113 3 l90 8 -127 1 c-76 1 -135 6 -145 12 -17 11 -17 11 1 6 16 -6 17 -4 6 9
-7 8 -10 29 -8 45 5 35 -6 47 -28 29 -12 -10 -13 -9 -8 4 3 10 -4 26 -21 43
-26 26 -28 26 -133 21 -83 -4 -97 -3 -62 4 25 5 77 10 115 10 39 1 57 3 41 6
-22 3 -26 7 -16 13 11 7 8 14 -15 32 -33 26 -114 68 -132 68 -7 0 -13 4 -13 8
0 5 -6 9 -12 10 -42 5 -78 15 -78 22 0 4 -16 10 -35 12 -19 2 -35 0 -35 -4 0
-12 -17 -10 -32 5 -30 27 -61 38 -89 32 -32 -7 -45 -6 -42 3 1 4 -32 7 -73 7
-53 0 -77 -4 -83 -14 -5 -7 -14 -10 -20 -7 -6 4 -9 12 -6 17 4 5 1 9 -5 9 -6
0 -8 5 -4 12 5 7 2 9 -9 5 -9 -3 -18 0 -21 9 -3 9 -10 13 -14 10 -5 -3 -7 22
-5 54 3 38 1 60 -6 60 -6 0 -8 -7 -5 -15 4 -8 2 -15 -4 -15 -5 0 -12 9 -15 20
-3 11 -10 20 -15 20 -6 0 -14 -9 -17 -20 -8 -26 -25 -26 -20 0 6 33 16 42 37
37 20 -6 20 -5 2 12 -15 14 -23 15 -36 7 -31 -19 -32 3 -2 31 25 23 26 28 12
31 -16 3 -22 14 -19 35 1 4 -10 0 -24 -9 -14 -9 -22 -20 -19 -25 3 -5 -2 -6
-10 -3 -19 7 -19 4 -5 43 6 17 15 31 20 31 5 0 9 9 9 19 0 11 5 21 12 23 6 2
13 19 14 36 1 18 10 44 21 59 10 14 23 33 28 42 6 9 20 31 33 48 12 17 22 38
22 47 0 9 4 16 9 16 10 0 24 38 22 58 -1 6 6 12 15 12 10 0 15 3 11 6 -3 4 4
15 16 25 l22 19 -30 -10 -30 -10 25 20 c14 11 29 20 33 20 4 0 7 8 5 17 -3 17
1 19 43 22 14 1 19 6 15 16 -4 10 1 15 17 16 12 1 29 3 37 4 25 2 74 17 85 25
6 4 17 10 25 13 8 2 2 3 -14 1 -28 -4 -29 -4 -11 16 9 10 20 19 24 18 26 -3
40 4 35 17 -8 20 6 19 22 -2 12 -16 13 -15 4 10 -6 17 -6 27 0 27 6 0 10 -6
10 -14 0 -8 7 -17 16 -20 22 -8 26 -8 20 3 -4 5 6 14 21 19 16 6 22 11 15 11
-7 1 -10 6 -7 11 3 6 -3 10 -15 10 -12 0 -19 4 -15 9 3 5 1 12 -4 15 -5 4 -12
2 -16 -3z m-509 -309 c-18 -16 -18 -16 -6 6 6 13 14 21 18 18 3 -4 -2 -14 -12
-24z m-9 -537 c0 -8 -4 -12 -9 -9 -5 3 -6 10 -3 15 9 13 12 11 12 -6z m269
-439 c3 -8 12 -12 20 -9 8 3 14 0 14 -6 0 -6 -7 -11 -15 -11 -8 0 -14 -5 -12
-12 2 -12 -4 -14 -45 -17 -13 -1 -18 -5 -13 -9 23 -16 16 -35 -11 -31 -4 0
-10 -4 -13 -10 -4 -6 -18 -12 -31 -14 -13 -2 -26 -9 -28 -15 -2 -7 -8 -12 -14
-12 -6 0 -8 7 -5 15 4 8 2 17 -3 20 -5 3 -7 12 -4 20 4 8 10 12 15 9 5 -3 6 2
3 10 -4 11 6 22 30 37 20 11 36 25 36 29 0 8 22 15 58 19 7 0 15 -5 18 -13z
m-295 -139 c-8 -8 -11 -5 -11 9 0 27 14 41 18 19 2 -9 -1 -22 -7 -28z m-4 -59
c-3 -7 -5 -2 -5 12 0 14 2 19 5 13 2 -7 2 -19 0 -25z m966 17 c4 -8 3 -16 -1
-19 -4 -3 -9 4 -9 15 -2 23 3 25 10 4z m-579 -104 c-4 -22 -2 -54 4 -70 10
-28 9 -31 -10 -31 -12 0 -32 10 -45 22 -23 21 -31 48 -14 48 5 0 8 7 7 16 -1
13 39 47 62 53 1 1 -1 -17 -4 -38z m479 2 c-29 -2 -78 -2 -110 0 -32 2 -8 3
52 3 61 0 87 -1 58 -3z m-658 -273 c-3 -5 -13 -6 -21 -3 -12 4 -13 8 -3 14 15
9 32 2 24 -11z m1465 -1140 c0 -11 5 -20 11 -20 5 0 7 5 3 12 -5 8 -2 9 10 5
10 -4 23 -7 29 -8 7 0 3 -4 -8 -9 -19 -8 -19 -9 3 -9 19 -1 22 -5 17 -23 -6
-17 -4 -20 9 -15 9 4 16 1 16 -5 0 -6 6 -6 16 3 38 31 51 11 26 -37 -5 -11
-15 -32 -21 -47 -8 -20 -16 -27 -27 -23 -10 4 -22 -6 -35 -29 -12 -19 -25 -32
-30 -29 -5 3 -12 -3 -16 -13 -14 -39 -78 -79 -111 -69 -13 5 -25 1 -34 -11 -7
-10 -20 -20 -28 -22 -8 -2 -24 -6 -34 -9 -14 -4 -18 -1 -14 9 8 22 -40 40 -97
37 -40 -3 -50 0 -53 15 -2 10 3 17 13 17 8 0 18 7 21 15 4 8 14 15 23 15 14 1
14 2 -1 11 -24 14 -23 29 3 29 11 0 32 9 46 20 14 11 32 20 40 20 11 0 11 4 2
21 -7 15 -14 18 -21 11 -14 -14 -38 -4 -32 13 4 9 -2 11 -20 8 -14 -3 -26 -12
-26 -19 0 -17 16 -18 24 -1 3 6 5 3 3 -8 -2 -15 -10 -20 -33 -21 -17 -1 -36
-4 -41 -7 -6 -4 -13 -1 -16 7 -3 8 -22 14 -52 14 -26 1 -52 8 -61 16 -17 18
-16 19 111 34 96 12 101 13 144 35 19 9 41 17 49 17 12 0 73 28 132 61 29 16
60 10 60 -11z m-756 -100 c2 0 1 -13 -2 -29 -2 -16 1 -32 7 -35 6 -4 11 -16
11 -27 0 -11 4 -18 8 -15 5 3 16 -4 26 -15 13 -15 24 -19 45 -14 23 5 35 0 65
-29 35 -34 47 -54 25 -41 -17 11 -101 -25 -95 -40 8 -21 -6 -26 -21 -7 -13 16
-14 15 -8 -5 5 -18 2 -20 -15 -16 -17 5 -20 11 -15 34 6 24 3 29 -13 29 -15 0
-19 -5 -15 -20 4 -16 2 -19 -11 -14 -9 3 -16 10 -16 15 0 5 -10 8 -22 6 -14
-1 -22 3 -20 11 1 6 -3 12 -8 12 -5 0 -10 -4 -10 -10 0 -5 -7 -7 -15 -4 -17 7
-21 34 -4 34 5 0 7 5 4 10 -5 8 -12 7 -23 -2 -10 -7 -14 -9 -10 -4 4 5 3 17
-3 27 -5 11 -6 19 -1 19 4 0 6 16 4 35 -3 26 2 42 22 66 14 17 26 26 26 20 0
-13 48 -61 60 -61 6 0 10 7 10 16 0 10 -6 14 -14 11 -20 -8 -28 4 -15 19 9 10
7 15 -4 20 -9 3 -18 12 -21 20 -5 12 0 12 31 -1 19 -8 36 -15 37 -15z m64 -15
c-3 -3 -9 2 -12 12 -6 14 -5 15 5 6 7 -7 10 -15 7 -18z m160 -23 c2 -7 -5 -12
-17 -12 -14 0 -19 5 -14 15 6 17 25 15 31 -3z m142 -155 c0 -16 -18 3 -23 25
-6 22 -5 22 8 4 8 -11 15 -24 15 -29z m-1239 -171 c18 -3 36 -5 39 -5 2 -1 -6
-8 -18 -17 -12 -8 -28 -12 -35 -8 -6 4 -9 4 -5 -1 9 -10 -36 -47 -92 -75 -41
-21 -43 -21 -27 -3 9 11 17 26 18 34 0 10 2 10 6 2 6 -16 33 -17 33 -2 0 5 -6
7 -12 3 -9 -5 -9 -3 1 9 7 9 17 14 22 11 5 -3 9 10 9 29 0 36 10 54 20 37 3
-5 22 -12 41 -14z m-767 -13 c34 -33 43 -69 24 -91 -8 -9 -18 -25 -21 -34 -7
-20 -61 -25 -73 -7 -11 18 -13 133 -2 146 17 20 43 15 72 -14z m3177 -96 c-1
-12 -15 -9 -19 4 -3 6 1 10 8 8 6 -3 11 -8 11 -12z m-1395 -54 l0 -37 -12 30
c-11 26 -7 38 12 44 0 0 0 -17 0 -37z m1544 17 c0 -13 -11 -13 -30 0 -12 8
-11 10 8 10 12 0 22 -4 22 -10z m-2805 -10 c-3 -5 -10 -10 -16 -10 -5 0 -9 5
-9 10 0 6 7 10 16 10 8 0 12 -4 9 -10z m1625 -21 c0 -5 -9 -9 -20 -9 -13 0
-18 5 -14 14 6 15 34 11 34 -5z m970 -5 c0 -2 -9 0 -20 6 -11 6 -20 13 -20 16
0 2 9 0 20 -6 11 -6 20 -13 20 -16z m-2871 -2 c11 -21 4 -35 -26 -51 -47 -24
-93 -8 -93 34 0 31 7 35 61 35 36 0 51 -5 58 -18z m3098 12 c-3 -3 -12 -4 -19
-1 -8 3 -5 6 6 6 11 1 17 -2 13 -5z m-137 -14 c0 -5 -2 -10 -4 -10 -3 0 -8 5
-11 10 -3 6 -1 10 4 10 6 0 11 -4 11 -10z m-2730 -4 c0 -9 -30 -14 -35 -6 -4
6 3 10 14 10 12 0 21 -2 21 -4z m2961 -15 c-10 -6 -9 -10 4 -15 9 -3 13 -10
10 -16 -3 -5 0 -10 8 -10 8 0 22 -9 32 -20 21 -23 9 -27 -15 -5 -16 14 -17 13
-14 -12 l4 -28 -9 26 c-18 53 -30 67 -52 62 -15 -4 -20 -3 -15 6 4 6 11 9 16
6 4 -3 13 2 20 10 7 9 15 13 19 10 3 -3 0 -10 -8 -14z m-170 -59 c-14 -5 -59
41 -54 55 3 8 16 0 34 -20 16 -17 25 -33 20 -35z m-151 49 c0 -15 -32 -23 -44
-11 -8 8 -6 9 7 5 10 -4 17 -2 17 4 0 6 5 11 10 11 6 0 10 -4 10 -9z m-1355
-29 c-2 -3 -12 -1 -22 2 -15 6 -15 9 -3 16 13 8 35 -8 25 -18z m1595 18 c12
-8 11 -10 -7 -10 -12 0 -25 5 -28 10 -8 13 15 13 35 0z m-2982 -16 c-15 -8
-48 -17 -73 -21 -37 -5 -45 -3 -45 10 0 19 19 24 90 25 54 1 54 1 28 -14z
m1309 -31 c-3 -10 -5 -4 -5 12 0 17 2 24 5 18 2 -7 2 -21 0 -30z m1733 7 c0
-5 -8 -10 -17 -10 -15 0 -16 2 -3 10 19 12 20 12 20 0z m-1790 -43 c0 -5 -4
-5 -10 -2 -5 3 -10 14 -10 23 0 15 2 15 10 2 5 -8 10 -19 10 -23z m1641 10
c-10 -9 -11 -8 -5 6 3 10 9 15 12 12 3 -3 0 -11 -7 -18z m102 16 c-7 -2 -19
-2 -25 0 -7 3 -2 5 12 5 14 0 19 -2 13 -5z m174 -53 c14 -35 11 -43 -7 -20
-10 14 -22 21 -26 17 -4 -4 -2 -7 4 -7 7 0 12 -5 12 -12 0 -6 -11 -1 -25 12
-26 24 -34 47 -12 33 23 -15 37 -11 38 10 1 20 2 21 6 2 2 -11 7 -27 10 -35z
m53 18 c0 -6 7 -7 16 -4 10 4 14 1 12 -6 -3 -7 -9 -13 -14 -13 -5 0 -14 -4
-21 -8 -6 -4 -14 -3 -18 3 -3 5 1 10 10 10 9 0 14 4 10 10 -3 5 -12 7 -20 3
-11 -4 -13 -1 -9 10 6 17 34 12 34 -5z m-2050 8 c0 -11 -19 -15 -25 -6 -3 5 1
10 9 10 9 0 16 -2 16 -4z m-1455 -26 c3 -5 1 -10 -4 -10 -6 0 -11 5 -11 10 0
6 2 10 4 10 3 0 8 -4 11 -10z m1512 -47 c8 -6 16 -20 18 -30 1 -10 8 -17 14
-15 21 4 11 -7 -19 -23 -28 -14 -33 -14 -52 0 -13 8 -17 15 -10 15 10 0 10 5
1 21 -8 16 -8 20 1 14 7 -4 11 -1 9 6 -1 8 -1 25 0 39 2 24 2 24 13 5 6 -11
17 -25 25 -32z m1790 41 c-3 -3 -12 -4 -19 -1 -8 3 -5 6 6 6 11 1 17 -2 13 -5z
m-1604 -38 c-1 -14 3 -26 8 -26 6 0 7 -5 4 -11 -4 -6 1 -16 11 -24 15 -11 16
-16 7 -26 -19 -19 -80 -22 -87 -4 -8 21 -43 19 -49 -2 -4 -14 -5 -13 -6 4 -1
30 38 42 56 17 21 -28 39 -3 20 27 -17 27 -15 58 5 70 21 14 33 4 31 -25z
m1707 8 c0 -2 -7 -4 -15 -4 -8 0 -15 4 -15 10 0 5 7 7 15 4 8 -4 15 -8 15 -10z
m140 0 c0 -8 -4 -12 -10 -9 -5 3 -10 10 -10 16 0 5 5 9 10 9 6 0 10 -7 10 -16z
m-177 -30 c-3 -7 -10 -11 -15 -8 -6 4 -5 10 3 15 10 6 11 9 2 9 -7 0 -13 5
-13 11 0 8 4 8 14 -1 8 -6 12 -18 9 -26z m267 21 c0 -14 -5 -16 -27 -14 -5 0
-11 -10 -15 -23 -5 -21 -6 -21 -7 6 -1 21 3 27 13 23 10 -4 13 -1 9 9 -3 8 1
14 11 14 9 0 16 -7 16 -15z m-444 -7 c3 -4 -1 -5 -10 -4 -8 1 -18 5 -22 8 -3
4 1 5 10 4 8 -1 18 -5 22 -8z m108 -3 c-4 -8 -10 -12 -15 -9 -14 8 -10 24 6
24 9 0 12 -6 9 -15z m167 -12 c13 -16 12 -17 -3 -4 -10 7 -18 15 -18 17 0 8 8
3 21 -13z m43 -12 c3 -5 -1 -11 -9 -15 -9 -3 -15 0 -15 9 0 16 16 20 24 6z
m-50 -17 c5 -14 4 -15 -9 -4 -17 14 -19 20 -6 20 5 0 12 -7 15 -16z m-39 -12
c-3 -3 -11 0 -18 7 -9 10 -8 11 6 5 10 -3 15 -9 12 -12z m-1045 4 c0 -3 -4 -8
-10 -11 -5 -3 -10 -1 -10 4 0 6 5 11 10 11 6 0 10 -2 10 -4z m840 -12 c0 -2
-9 -4 -20 -4 -11 0 -20 4 -20 9 0 5 9 7 20 4 11 -3 20 -7 20 -9z m463 -1 c3
-5 -10 -8 -28 -8 -18 0 -31 3 -28 8 2 4 15 7 28 7 13 0 26 -3 28 -7z m120 -33
c3 -11 1 -18 -4 -14 -5 3 -9 12 -9 20 0 20 7 17 13 -6z m-53 -16 c0 -14 -30
-33 -45 -28 -14 6 -14 8 2 20 18 14 43 19 43 8z m95 -4 c3 -5 1 -10 -4 -10 -6
0 -11 5 -11 10 0 6 2 10 4 10 3 0 8 -4 11 -10z m-412 -7 c-7 -2 -19 -2 -25 0
-7 3 -2 5 12 5 14 0 19 -2 13 -5z m357 -16 c10 -4 8 -6 -7 -6 -16 -1 -23 5
-23 17 0 10 3 13 8 6 4 -6 14 -14 22 -17z m-170 3 c0 -5 -2 -10 -4 -10 -3 0
-8 5 -11 10 -3 6 -1 10 4 10 6 0 11 -4 11 -10z m255 -20 c3 -5 -1 -10 -10 -10
-9 0 -13 5 -10 10 3 6 8 10 10 10 2 0 7 -4 10 -10z m-65 -4 c0 -3 -4 -8 -10
-11 -5 -3 -10 -1 -10 4 0 6 5 11 10 11 6 0 10 -2 10 -4z m154 -8 c4 3 4 -2 0
-12 -5 -14 -4 -17 4 -12 7 4 12 2 12 -5 0 -6 -8 -9 -20 -6 -10 3 -21 0 -23 -6
-2 -6 -6 -3 -10 6 -4 10 -2 17 5 17 6 0 5 6 -3 17 -13 15 -12 15 7 5 12 -6 24
-8 28 -4z m-107 -40 c-3 -8 -6 -5 -6 6 -1 11 2 17 5 13 3 -3 4 -12 1 -19z
m146 7 c-3 -9 -8 -14 -10 -11 -3 3 -2 9 2 15 9 16 15 13 8 -4z m-107 -9 c17
-17 19 -40 3 -30 -6 3 -15 1 -19 -6 -5 -8 -9 -7 -13 4 -4 9 -2 16 3 16 5 0 7
7 4 15 -8 19 3 19 22 1z m-69 -18 c-3 -8 -6 -5 -6 6 -1 11 2 17 5 13 3 -3 4
-12 1 -19z m109 -25 c-10 -10 -19 5 -10 18 6 11 8 11 12 0 2 -7 1 -15 -2 -18z
m-1696 -23 c0 -5 -5 -10 -11 -10 -5 0 -7 5 -4 10 3 6 8 10 11 10 2 0 4 -4 4
-10z m1730 0 c0 -5 -2 -10 -4 -10 -3 0 -8 5 -11 10 -3 6 -1 10 4 10 6 0 11 -4
11 -10z m50 -5 c0 -1 -9 -5 -20 -8 -12 -3 -20 0 -20 8 0 8 8 11 20 8 11 -3 20
-7 20 -8z m-205 -25 c3 -5 1 -10 -4 -10 -6 0 -11 5 -11 10 0 6 2 10 4 10 3 0
8 -4 11 -10z m281 -9 c-3 -5 1 -12 10 -15 9 -4 14 -9 11 -13 -9 -8 -38 17 -31
28 3 5 7 9 10 9 3 0 3 -4 0 -9z m174 -18 c0 -9 3 -14 6 -10 3 3 17 2 30 -3 19
-7 24 -6 24 5 0 8 -4 14 -9 13 -5 -2 -11 2 -12 7 -2 6 13 11 34 13 26 2 37 -1
37 -11 0 -9 9 -12 29 -9 16 2 31 0 35 -6 3 -5 -6 -7 -21 -4 -19 4 -24 1 -21
-9 3 -8 15 -13 27 -12 11 2 21 -2 21 -7 0 -7 7 -7 20 0 16 8 26 7 42 -5 13 -8
17 -15 10 -15 -8 0 -10 -5 -6 -12 4 -7 3 -8 -5 -4 -6 4 -9 12 -6 17 7 11 -2
11 -30 0 -11 -5 -30 -5 -42 0 -13 5 -23 4 -25 -2 -2 -6 -15 2 -28 18 -14 15
-17 21 -7 14 22 -18 33 -8 11 10 -22 18 -44 20 -44 4 0 -8 -8 -19 -17 -25 -13
-8 -14 -13 -5 -16 6 -3 12 -12 12 -21 0 -9 -12 -1 -32 21 -17 19 -36 33 -41
29 -6 -4 -7 -1 -2 7 6 10 3 12 -13 8 -26 -7 -27 -5 -6 16 18 18 34 13 34 -11z
m-2103 -15 c-3 -8 -6 -5 -6 6 -1 11 2 17 5 13 3 -3 4 -12 1 -19z m2313 12 c0
-5 -5 -10 -11 -10 -5 0 -7 5 -4 10 3 6 8 10 11 10 2 0 4 -4 4 -10z m-735 -11
c12 -18 -3 -22 -20 -5 -14 14 -14 16 -1 16 8 0 18 -5 21 -11z m132 5 c-3 -3
-12 -4 -19 -1 -8 3 -5 6 6 6 11 1 17 -2 13 -5z m173 -4 c0 -5 -2 -10 -4 -10
-3 0 -8 5 -11 10 -3 6 -1 10 4 10 6 0 11 -4 11 -10z m490 0 c0 -5 -5 -10 -11
-10 -5 0 -7 5 -4 10 3 6 8 10 11 10 2 0 4 -4 4 -10z m-623 -32 c-3 -8 -6 -5
-6 6 -1 11 2 17 5 13 3 -3 4 -12 1 -19z m173 18 c0 -2 -7 -6 -15 -10 -8 -3
-15 -1 -15 4 0 6 7 10 15 10 8 0 15 -2 15 -4z m167 -22 c-3 -3 -12 -4 -19 -1
-8 3 -5 6 6 6 11 1 17 -2 13 -5z m100 -6 c-2 -7 0 -22 5 -33 9 -19 8 -19 -6
-2 -8 11 -12 25 -9 33 6 17 16 19 10 2z m-500 -20 c-3 -8 -6 -5 -6 6 -1 11 2
17 5 13 3 -3 4 -12 1 -19z m123 12 c0 -5 -2 -10 -4 -10 -3 0 -8 5 -11 10 -3 6
-1 10 4 10 6 0 11 -4 11 -10z m610 -17 l25 -26 -32 17 c-18 9 -33 21 -33 26 0
17 14 11 40 -17z m-750 13 c0 -2 -7 -6 -15 -10 -8 -3 -15 -1 -15 4 0 6 7 10
15 10 8 0 15 -2 15 -4z m-250 -16 c0 -5 -4 -10 -10 -10 -5 0 -10 5 -10 10 0 6
5 10 10 10 6 0 10 -4 10 -10z m589 -34 c-9 -8 -10 -7 -5 7 3 10 7 24 7 30 1 7
3 4 6 -7 3 -10 -1 -23 -8 -30z m124 24 c3 -11 1 -20 -4 -20 -5 0 -9 9 -9 20 0
11 2 20 4 20 2 0 6 -9 9 -20z m107 16 c0 -3 -4 -8 -10 -11 -5 -3 -10 -1 -10 4
0 6 5 11 10 11 6 0 10 -2 10 -4z m40 -16 c6 -11 7 -20 2 -20 -6 0 -12 9 -15
20 -3 11 -3 20 -1 20 2 0 8 -9 14 -20z m210 10 c0 -5 -2 -10 -4 -10 -3 0 -8 5
-11 10 -3 6 -1 10 4 10 6 0 11 -4 11 -10z m-2683 -6 c-3 -3 -12 -4 -19 -1 -8
3 -5 6 6 6 11 1 17 -2 13 -5z m28 -4 c3 -5 1 -10 -4 -10 -6 0 -11 5 -11 10 0
6 2 10 4 10 3 0 8 -4 11 -10z m2043 -4 c-10 -7 -15 -16 -12 -19 3 -3 -3 -3
-15 0 -27 7 -26 11 2 23 32 13 45 11 25 -4z m181 5 c9 -6 10 -11 2 -15 -13 -8
-31 1 -31 15 0 11 11 11 29 0z m289 0 c-2 -25 4 -40 16 -35 7 3 16 -2 20 -11
5 -13 1 -15 -17 -10 -27 9 -33 14 -41 41 -4 14 -2 21 8 21 8 0 15 -3 14 -6z
m-862 -56 c-3 -8 -1 -15 3 -15 5 0 7 -8 4 -19 -3 -10 0 -22 5 -25 7 -4 10 5 9
24 -1 16 3 29 8 28 6 -1 9 -8 7 -15 -2 -7 3 -13 9 -13 7 0 9 3 6 6 -3 4 -2 15
3 25 7 12 6 19 -2 21 -7 3 -2 7 10 10 22 6 31 -6 12 -17 -5 -3 -10 -15 -10
-26 0 -10 5 -19 10 -19 6 0 9 3 9 8 -3 20 2 33 11 27 6 -4 8 -11 5 -16 -4 -5
-1 -9 5 -9 7 0 10 12 8 27 -2 15 2 28 10 31 9 3 12 -3 10 -14 -4 -25 34 -31
56 -9 15 15 16 15 17 -2 0 -16 1 -16 10 2 8 17 8 15 4 -7 -6 -31 2 -36 19 -12
10 13 12 12 12 -8 0 -13 -5 -26 -10 -30 -8 -5 -7 -8 1 -8 6 0 11 -9 10 -19 0
-11 -5 -17 -9 -15 -5 3 -6 9 -3 14 3 4 -2 14 -11 21 -14 11 -15 9 -9 -24 4
-20 3 -37 -1 -38 -5 0 -19 -2 -31 -5 -17 -3 -20 0 -16 16 4 14 0 20 -11 20 -9
0 -16 4 -16 10 0 5 -7 7 -15 4 -12 -5 -13 -10 -4 -20 6 -8 15 -11 20 -8 5 3 9
0 9 -5 0 -6 -5 -11 -11 -11 -7 0 -8 -5 -3 -13 5 -7 0 -3 -11 10 -12 13 -27 23
-35 23 -13 0 -13 -2 0 -10 12 -8 11 -10 -7 -10 -25 0 -39 16 -21 23 7 3 -3 3
-22 0 -19 -3 -40 -12 -46 -19 -6 -8 -16 -14 -23 -14 -15 0 -14 19 2 25 13 6
18 108 5 121 -5 4 -8 14 -8 23 0 11 5 9 16 -7 9 -13 13 -29 10 -37z m154 45
c0 -5 -4 -10 -9 -10 -6 0 -13 5 -16 10 -3 6 1 10 9 10 9 0 16 -4 16 -10z m682
-25 c3 -14 1 -25 -3 -25 -5 0 -9 4 -9 9 0 5 -3 16 -6 25 -3 9 -2 16 4 16 5 0
12 -11 14 -25z m-2557 5 c3 -5 -1 -10 -9 -10 -9 0 -16 -4 -16 -10 0 -5 -5 -10
-10 -10 -6 0 -5 8 2 20 14 22 24 25 33 10z m1380 -8 c-3 -3 -11 0 -18 7 -9 10
-8 11 6 5 10 -3 15 -9 12 -12z m1072 12 c-3 -3 -12 -4 -19 -1 -8 3 -5 6 6 6
11 1 17 -2 13 -5z m-447 -14 c0 -5 -4 -10 -10 -10 -5 0 -10 5 -10 10 0 6 5 10
10 10 6 0 10 -4 10 -10z m344 1 c3 -5 -1 -11 -9 -14 -9 -4 -12 -1 -8 9 6 16
10 17 17 5z m301 -9 c-3 -3 -11 0 -18 7 -9 10 -8 11 6 5 10 -3 15 -9 12 -12z
m-571 0 c3 -5 -1 -9 -9 -9 -8 0 -15 4 -15 9 0 4 4 8 9 8 6 0 12 -4 15 -8z
m226 -8 c0 -2 -7 -4 -15 -4 -8 0 -15 4 -15 10 0 5 7 7 15 4 8 -4 15 -8 15 -10z
m378 -9 c-3 -3 -9 2 -12 12 -6 14 -5 15 5 6 7 -7 10 -15 7 -18z m-1178 -1 c0
-8 -5 -12 -10 -9 -6 4 -8 11 -5 16 9 14 15 11 15 -7z m717 -21 c-3 -10 -5 -4
-5 12 0 17 2 24 5 18 2 -7 2 -21 0 -30z m283 27 c0 -5 -4 -10 -10 -10 -5 0
-10 5 -10 10 0 6 5 10 10 10 6 0 10 -4 10 -10z m-970 -4 c0 -3 -4 -8 -10 -11
-5 -3 -10 -1 -10 4 0 6 5 11 10 11 6 0 10 -2 10 -4z m470 -21 c0 -14 -4 -25
-9 -25 -4 0 -6 11 -3 25 2 14 6 25 8 25 2 0 4 -11 4 -25z m34 4 c-3 -5 3 -9
13 -10 14 0 15 -2 3 -7 -21 -10 -23 -32 -2 -32 14 0 15 -2 2 -9 -8 -6 -17 -8
-21 -5 -5 2 -6 -4 -4 -14 2 -10 -2 -19 -8 -19 -7 0 -19 -3 -27 -5 -8 -3 -12
-3 -8 -1 4 3 6 16 4 31 -2 15 -1 21 1 15 2 -7 8 -13 12 -13 11 0 22 56 15 75
-5 11 -2 13 10 9 9 -3 13 -10 10 -15z m83 -1 c-3 -8 -6 -5 -6 6 -1 11 2 17 5
13 3 -3 4 -12 1 -19z m320 16 c-3 -3 -12 -4 -19 -1 -8 3 -5 6 6 6 11 1 17 -2
13 -5z m33 -10 c0 -8 -5 -12 -10 -9 -6 4 -8 11 -5 16 9 14 15 11 15 -7z m120
-6 c0 -18 -2 -20 -9 -8 -6 8 -7 18 -5 22 9 14 14 9 14 -14z m-409 -11 c-10 -9
-11 -8 -5 6 3 10 9 15 12 12 3 -3 0 -11 -7 -18z m179 19 c0 -2 -8 -10 -17 -17
-16 -13 -17 -12 -4 4 13 16 21 21 21 13z m-202 -31 c-3 -3 -9 2 -12 12 -6 14
-5 15 5 6 7 -7 10 -15 7 -18z m242 5 c-8 -6 -22 -10 -30 -10 -8 0 -4 6 10 13
27 15 44 12 20 -3z m-960 0 c0 -5 -4 -10 -9 -10 -6 0 -13 5 -16 10 -3 6 1 10
9 10 9 0 16 -4 16 -10z m190 -5 c-7 -9 -9 -19 -5 -23 4 -4 10 -1 13 7 3 10 8
8 17 -9 8 -15 15 -19 19 -11 4 6 2 11 -3 11 -6 0 -11 4 -11 8 0 5 7 9 15 9 19
0 19 -9 -2 -46 -19 -32 -51 -47 -67 -31 -15 15 -30 12 -17 -4 9 -11 4 -10 -23
2 -19 9 -32 20 -29 26 3 6 0 5 -8 -1 -7 -7 -21 -13 -31 -13 -10 0 -17 6 -15
13 3 18 35 39 48 32 6 -4 13 2 16 14 4 14 13 21 30 21 14 0 22 -4 18 -10 -4
-6 -1 -18 7 -27 9 -12 9 -15 1 -9 -9 4 -13 1 -13 -9 0 -11 5 -15 15 -11 8 3
15 1 15 -4 0 -6 7 -10 15 -10 17 0 9 31 -12 43 -19 11 -16 47 3 47 14 0 14 -3
4 -15z m476 -18 c1 -10 -4 -13 -18 -9 -15 4 -17 7 -6 13 10 7 10 9 1 9 -7 0
-13 5 -13 10 0 17 33 -5 36 -23z m164 -4 c0 -12 -2 -12 -15 1 -8 8 -15 20 -15
27 0 9 4 8 15 -1 8 -7 15 -19 15 -27z m460 27 c0 -5 -4 -10 -10 -10 -5 0 -10
5 -10 10 0 6 5 10 10 10 6 0 10 -4 10 -10z m-1233 -25 c-4 -8 -12 -15 -19 -15
-9 0 -8 3 2 10 8 5 11 10 7 10 -5 0 -5 5 -2 11 10 15 19 3 12 -16z m1128 15
c3 -5 1 -10 -4 -10 -6 0 -11 5 -11 10 0 6 2 10 4 10 3 0 8 -4 11 -10z m-1175
-38 c-7 -3 -16 1 -20 8 -4 7 -13 9 -19 6 -6 -4 -11 -3 -11 2 0 19 13 20 38 4
15 -10 20 -18 12 -20z m1047 6 c-3 -8 -6 -5 -6 6 -1 11 2 17 5 13 3 -3 4 -12
1 -19z m230 16 c-3 -3 -12 -4 -19 -1 -8 3 -5 6 6 6 11 1 17 -2 13 -5z m-5387
-14 c0 -5 -2 -10 -4 -10 -3 0 -8 5 -11 10 -3 6 -1 10 4 10 6 0 11 -4 11 -10z
m4855 0 c3 -6 -1 -7 -9 -4 -18 7 -21 14 -7 14 6 0 13 -4 16 -10z m-2150 -9 c3
-5 0 -13 -6 -17 -7 -4 -9 -3 -5 4 3 5 0 13 -6 15 -9 4 -10 6 -1 6 6 1 14 -3
18 -8z m45 -9 c0 -17 -27 -82 -34 -82 -2 0 -2 17 0 38 1 20 7 36 13 35 6 -2 8
4 5 12 -4 8 -1 15 5 15 6 0 11 -8 11 -18z m2075 7 c11 -17 2 -18 -19 -3 -17
12 -17 14 -4 14 9 0 20 -5 23 -11z m225 -9 c0 -5 -2 -10 -4 -10 -3 0 -8 5 -11
10 -3 6 -1 10 4 10 6 0 11 -4 11 -10z m-1040 -20 c0 -5 -4 -10 -10 -10 -5 0
-10 5 -10 10 0 6 5 10 10 10 6 0 10 -4 10 -10z m393 -7 c-7 -3 -13 -9 -13 -14
0 -6 4 -8 9 -4 6 3 9 -4 8 -15 -1 -19 -17 -30 -17 -11 0 4 -11 6 -24 4 -17 -4
-25 0 -28 14 -3 12 0 20 8 20 8 0 14 -4 14 -9 0 -5 5 -6 10 -3 6 4 8 10 5 15
-3 5 3 10 12 12 21 5 34 -3 16 -9z m32 7 c3 -5 1 -10 -4 -10 -6 0 -11 5 -11
10 0 6 2 10 4 10 3 0 8 -4 11 -10z m85 -54 c0 -5 -9 -1 -20 9 -11 10 -20 25
-20 34 0 12 6 9 20 -9 11 -14 20 -29 20 -34z m310 33 c0 -14 -17 -10 -23 5 -4
10 -1 13 9 9 7 -3 14 -9 14 -14z m30 -4 c-7 -9 -15 -13 -18 -10 -3 2 1 11 8
20 7 9 15 13 18 10 3 -2 -1 -11 -8 -20z m107 10 c0 -8 -4 -15 -9 -15 -4 0 -8
7 -8 15 0 8 4 15 8 15 5 0 9 -7 9 -15z m-397 1 c0 -3 -4 -8 -10 -11 -5 -3 -10
-1 -10 4 0 6 5 11 10 11 6 0 10 -2 10 -4z m790 0 c0 -3 -4 -8 -10 -11 -5 -3
-10 -1 -10 4 0 6 5 11 10 11 6 0 10 -2 10 -4z m-1260 -16 c0 -5 -2 -10 -4 -10
-3 0 -8 5 -11 10 -3 6 -1 10 4 10 6 0 11 -4 11 -10z m227 -6 c-3 -3 -12 -4
-19 -1 -8 3 -5 6 6 6 11 1 17 -2 13 -5z m120 0 c-3 -3 -12 -4 -19 -1 -8 3 -5
6 6 6 11 1 17 -2 13 -5z m583 2 c0 -10 -32 -36 -43 -36 -7 0 -4 5 6 11 9 6 15
14 12 20 -4 5 1 9 9 9 9 0 16 -2 16 -4z m-960 -14 c-16 -7 -18 -17 -6 -43 5
-11 20 -17 44 -17 28 0 32 2 19 10 -9 5 -20 7 -25 5 -4 -3 -13 1 -20 9 -7 8
-9 14 -5 15 4 0 18 2 30 3 12 1 20 -1 17 -6 -4 -5 0 -9 7 -7 29 3 39 -2 39
-21 0 -19 -19 -26 -59 -21 -7 2 -11 -2 -7 -7 5 -9 -5 -11 -56 -14 -17 -1 -28
-8 -28 -17 0 -8 -2 -12 -5 -9 -13 13 8 58 26 58 18 0 18 1 2 20 -12 13 -25 18
-42 14 -25 -4 -25 -4 -3 5 12 6 22 15 22 21 0 5 15 10 33 9 20 0 26 -3 17 -7z
m580 4 c0 -3 -4 -8 -10 -11 -5 -3 -10 -1 -10 4 0 6 5 11 10 11 6 0 10 -2 10
-4z m-187 -17 c-6 -6 -9 -19 -6 -28 4 -13 3 -14 -5 -1 -10 14 1 40 16 40 3 0
1 -5 -5 -11z m32 1 c3 -5 1 -10 -4 -10 -6 0 -11 5 -11 10 0 6 2 10 4 10 3 0 8
-4 11 -10z m104 -11 c-14 -8 -29 -3 -29 11 0 4 9 6 21 3 15 -4 17 -8 8 -14z
m345 9 c-3 -4 -9 -8 -15 -8 -5 0 -9 4 -9 8 0 5 7 9 15 9 8 0 12 -4 9 -9z m237
-6 c-7 -2 -18 1 -23 6 -8 8 -4 9 13 5 13 -4 18 -8 10 -11z m-754 -11 c-1 -15
-4 -17 -14 -9 -15 12 -17 22 -3 13 6 -3 10 -1 10 4 0 6 2 11 4 11 3 0 4 -9 3
-19z m-544 -16 c-7 -21 -13 -19 -13 6 0 11 4 18 10 14 5 -3 7 -12 3 -20z m787
11 c0 -3 -4 -8 -10 -11 -5 -3 -10 -1 -10 4 0 6 5 11 10 11 6 0 10 -2 10 -4z
m-700 -16 c0 -5 9 -10 21 -10 11 0 17 5 14 10 -3 6 1 10 9 10 13 0 14 -3 5
-19 -10 -15 -17 -17 -45 -8 -18 6 -31 14 -28 19 7 11 24 10 24 -2z m270 -10
c0 -5 -5 -10 -11 -10 -5 0 -7 5 -4 10 3 6 8 10 11 10 2 0 4 -4 4 -10z m-345
-32 c-6 -22 -5 -22 8 1 10 16 16 20 21 12 4 -7 15 -11 24 -10 29 2 46 -1 39
-8 -4 -3 -1 -13 6 -21 11 -13 9 -14 -11 -1 -20 12 -24 12 -33 -1 -9 -13 -10
-12 -5 3 3 9 4 17 2 17 -3 0 -12 3 -22 7 -12 4 -15 3 -10 -5 4 -7 2 -12 -4
-12 -7 0 -10 -6 -7 -13 3 -8 -4 -14 -20 -15 -14 -1 -22 2 -18 8 4 6 11 8 16 5
5 -4 5 3 0 18 -10 25 -6 37 11 37 5 0 7 -10 3 -22z m569 6 c5 -14 4 -15 -9 -4
-17 14 -19 20 -6 20 5 0 12 -7 15 -16z m-296 -12 c2 -7 -2 -10 -12 -6 -9 3
-16 11 -16 16 0 13 23 5 28 -10z m121 1 c0 -10 -3 -13 -5 -6 -3 7 -13 9 -22 6
-15 -4 -15 -3 -2 6 22 15 30 14 29 -6z m-1816 -16 c9 -3 17 -13 17 -22 0 -31
-42 -8 -47 27 -2 13 0 18 4 12 5 -6 16 -13 26 -17z m1675 -22 c-3 -3 -9 2 -12
12 -6 14 -5 15 5 6 7 -7 10 -15 7 -18z m-358 1 c0 -9 12 -14 34 -14 44 0 67
-13 41 -22 -12 -4 -15 -9 -8 -13 6 -4 18 -1 26 8 13 13 16 12 21 -8 3 -12 0
-26 -6 -32 -8 -7 -9 -6 -4 3 4 6 3 12 -2 12 -6 0 -12 -7 -16 -15 -3 -8 -12
-15 -21 -15 -8 0 -15 -8 -15 -17 0 -13 -8 -18 -32 -18 -17 0 -33 6 -35 13 -3
6 2 12 11 12 9 0 16 7 16 16 0 9 6 14 13 11 8 -3 20 -1 28 4 11 7 11 9 -3 9
-9 0 -20 5 -24 12 -5 7 -3 8 6 3 9 -5 11 -4 6 3 -4 7 -14 12 -22 12 -8 0 -17
7 -20 15 -4 8 -13 15 -21 15 -8 0 -11 5 -8 10 9 15 35 12 35 -4z m447 8 c-3
-3 -12 -4 -19 -1 -8 3 -5 6 6 6 11 1 17 -2 13 -5z m-177 -26 c0 -5 -25 -8 -55
-8 -44 0 -53 -3 -49 -15 4 -8 1 -15 -5 -15 -6 0 -11 2 -11 4 0 2 -3 12 -7 22
-4 12 -3 15 5 10 7 -4 12 -4 12 1 0 4 25 8 55 8 30 0 55 -3 55 -7z m174 4 c3
-5 -1 -9 -9 -9 -8 0 -15 4 -15 9 0 4 4 8 9 8 6 0 12 -4 15 -8z m-1687 -8 c-3
-3 -12 -4 -19 -1 -8 3 -5 6 6 6 11 1 17 -2 13 -5z m1183 -14 c0 -5 -4 -10 -10
-10 -5 0 -10 5 -10 10 0 6 5 10 10 10 6 0 10 -4 10 -10z m40 -10 c-19 -13 -30
-13 -30 0 0 6 10 10 23 10 18 0 19 -2 7 -10z m-62 -65 c-9 -9 -30 14 -23 25 6
9 10 8 17 -4 6 -10 8 -19 6 -21z m249 28 c-4 -3 -1 -13 6 -21 9 -13 9 -14 0
-8 -8 4 -13 2 -13 -6 0 -9 -3 -9 -10 2 -9 13 -10 13 -10 0 0 -13 -1 -13 -10 0
-14 22 -12 33 5 26 8 -3 15 -1 15 4 0 6 5 10 12 10 6 0 8 -3 5 -7z m-212 -23
c3 -5 -1 -10 -9 -10 -9 0 -16 5 -16 10 0 6 4 10 9 10 6 0 13 -4 16 -10z m-85
-40 c0 -5 -7 -10 -15 -10 -8 0 -15 5 -15 10 0 6 7 10 15 10 8 0 15 -4 15 -10z
m190 -10 c-8 -5 -18 -6 -24 -3 -5 4 -1 10 10 13 24 9 34 2 14 -10z m-47 3 c-7
-3 -13 -14 -13 -26 0 -20 0 -20 -15 -1 -20 27 -19 32 13 31 15 0 21 -2 15 -4z
m-189 -34 c-8 -13 -24 -1 -24 18 0 13 3 13 15 3 8 -7 12 -16 9 -21z m276 13
c0 -5 -7 -9 -15 -9 -8 0 -12 4 -9 9 3 4 9 8 15 8 5 0 9 -4 9 -8z m-1258 -152
c3 -41 2 -66 -2 -55 -10 27 -21 175 -11 150 5 -11 11 -54 13 -95z"/>
<path d="M2180 3730 c0 -6 7 -10 15 -10 8 0 15 2 15 4 0 2 -7 6 -15 10 -8 3
-15 1 -15 -4z"/>
<path d="M5087 683 c5 -13 2 -15 -15 -11 -15 4 -22 2 -22 -9 0 -8 -4 -11 -10
-8 -5 3 -10 1 -10 -4 0 -6 7 -11 15 -11 8 0 15 4 15 9 0 12 39 21 46 10 3 -5
10 -9 15 -9 6 0 8 4 4 9 -3 5 0 13 6 17 8 4 9 3 5 -4 -4 -7 -2 -12 4 -12 6 0
8 -4 5 -10 -3 -5 -2 -17 3 -26 6 -11 12 -13 16 -6 3 6 2 13 -4 17 -7 4 -7 13
0 26 6 11 8 24 5 29 -9 14 -42 12 -49 -2 -5 -10 -7 -10 -12 0 -9 18 -24 15
-17 -5z"/>
<path d="M4798 642 c-14 -14 -14 -20 -3 -35 7 -10 15 -15 18 -10 4 7 7 64 3
62 0 0 -8 -8 -18 -17z"/>
<path d="M4745 619 c-4 -6 -5 -12 -2 -15 2 -3 7 2 10 11 7 17 1 20 -8 4z"/>
<path d="M4628 463 c7 -3 16 -2 19 1 4 3 -2 6 -13 5 -11 0 -14 -3 -6 -6z"/>
<path d="M2566 5005 c-3 -9 0 -15 8 -15 7 0 13 7 13 15 0 8 -4 15 -8 15 -4 0
-9 -7 -13 -15z"/>
<path d="M2035 4930 c-4 -6 -3 -16 3 -22 13 -13 23 4 13 21 -7 10 -10 10 -16
1z"/>
<path d="M2091 4904 c-19 -8 -32 -17 -29 -19 5 -5 68 23 68 31 0 5 0 5 -39
-12z"/>
<path d="M2960 4910 c0 -6 7 -10 15 -10 8 0 15 2 15 4 0 2 -7 6 -15 10 -8 3
-15 1 -15 -4z"/>
<path d="M2063 4849 c-13 -5 -23 -16 -23 -25 0 -9 -8 -23 -17 -30 -17 -13 -17
-13 0 -14 24 0 92 66 75 72 -7 3 -23 2 -35 -3z"/>
<path d="M2900 4810 c0 -5 7 -10 16 -10 8 0 12 5 9 10 -3 6 -10 10 -16 10 -5
0 -9 -4 -9 -10z"/>
<path d="M2328 4623 c7 -3 16 -2 19 1 4 3 -2 6 -13 5 -11 0 -14 -3 -6 -6z"/>
<path d="M3460 4560 c0 -6 7 -10 15 -10 8 0 15 2 15 4 0 2 -7 6 -15 10 -8 3
-15 1 -15 -4z"/>
<path d="M2145 4449 c-10 -15 3 -25 16 -12 7 7 7 13 1 17 -6 3 -14 1 -17 -5z"/>
<path d="M3563 4436 c-10 -11 -9 -15 1 -19 8 -3 16 3 19 14 6 22 -3 24 -20 5z"/>
<path d="M4258 4440 c-2 -8 5 -22 16 -32 12 -10 16 -17 9 -18 -7 0 -13 -9 -13
-21 0 -12 4 -18 11 -13 8 5 9 2 2 -10 -7 -12 -5 -34 5 -69 8 -29 17 -67 21
-85 l6 -34 23 31 c12 16 22 34 22 40 0 5 6 11 14 14 8 3 20 16 27 29 11 21 11
22 -5 9 -14 -12 -16 -12 -10 3 3 9 11 16 16 16 13 0 1 48 -15 64 -7 7 -20 15
-29 19 -10 3 -18 15 -18 26 0 14 -5 19 -15 15 -11 -5 -12 -11 -5 -24 6 -10 9
-36 9 -57 l-1 -38 -12 47 c-13 55 -50 111 -58 88z"/>
<path d="M3405 4420 c3 -5 8 -10 11 -10 2 0 4 5 4 10 0 6 -5 10 -11 10 -5 0
-7 -4 -4 -10z"/>
<path d="M3488 4423 c7 -3 16 -2 19 1 4 3 -2 6 -13 5 -11 0 -14 -3 -6 -6z"/>
<path d="M2425 4410 c-63 -10 -171 -42 -182 -54 -5 -5 0 -6 11 -2 36 13 162
35 236 42 41 3 85 7 98 9 12 1 24 4 27 7 8 8 -135 6 -190 -2z"/>
<path d="M2638 4413 c6 -2 18 -2 25 0 6 3 1 5 -13 5 -14 0 -19 -2 -12 -5z"/>
<path d="M3760 4397 c14 -8 27 -12 30 -10 7 6 -23 23 -40 23 -8 0 -4 -6 10
-13z"/>
<path d="M2050 4389 c0 -8 -9 -20 -20 -27 -11 -7 -20 -18 -20 -25 0 -9 3 -9 9
1 4 8 11 13 15 13 18 -3 24 1 30 16 4 9 2 21 -4 27 -7 7 -10 5 -10 -5z"/>
<path d="M3885 4350 c3 -5 11 -10 16 -10 6 0 7 5 4 10 -3 6 -11 10 -16 10 -6
0 -7 -4 -4 -10z"/>
<path d="M2425 4292 c-16 -2 -34 -8 -39 -13 -6 -5 48 -9 139 -9 81 0 146 2
144 4 -2 3 -49 8 -104 12 -55 3 -102 7 -105 8 -3 1 -18 0 -35 -2z"/>
<path d="M3625 4290 c-4 -6 14 -10 47 -9 45 1 49 3 23 9 -44 11 -63 11 -70 0z"/>
<path d="M3020 4270 c-9 -6 -10 -10 -3 -10 6 0 15 5 18 10 8 12 4 12 -15 0z"/>
<path d="M3063 4263 c9 -2 23 -2 30 0 6 3 -1 5 -18 5 -16 0 -22 -2 -12 -5z"/>
<path d="M3428 4263 c7 -3 16 -2 19 1 4 3 -2 6 -13 5 -11 0 -14 -3 -6 -6z"/>
<path d="M4410 4241 c0 -8 -23 -38 -51 -68 -49 -52 -51 -56 -45 -96 4 -23 11
-100 16 -171 5 -70 14 -143 20 -162 11 -31 15 -34 51 -34 24 0 39 5 39 13 0 9
2 9 8 0 4 -7 13 -9 20 -4 9 5 10 20 2 61 -6 30 -13 123 -16 209 -5 135 -8 158
-27 183 -11 15 -18 31 -14 34 4 4 11 -4 16 -17 l10 -24 0 26 c1 14 -6 34 -14
45 -10 13 -14 15 -15 5z"/>
<path d="M3510 4220 c-18 -12 -2 -12 25 0 13 6 15 9 5 9 -8 0 -22 -4 -30 -9z"/>
<path d="M3451 3989 c-14 -5 -31 -7 -38 -5 -16 6 -63 -13 -63 -26 0 -5 -5 -6
-11 -2 -8 4 -9 -1 -4 -17 7 -21 6 -22 -8 -10 -14 11 -21 9 -48 -18 -17 -18
-36 -28 -42 -24 -7 4 -6 -1 2 -11 8 -9 20 -15 27 -12 7 3 16 1 19 -4 4 -6 16
-10 28 -9 21 0 21 1 2 9 -15 6 -6 9 35 11 30 1 82 4 115 5 33 2 96 5 140 7
158 7 285 27 285 45 0 13 -61 34 -80 29 -11 -3 -20 -1 -20 5 0 6 -15 8 -34 6
-19 -2 -33 -1 -31 2 2 3 -12 6 -31 6 -19 0 -34 -3 -34 -7 0 -4 -25 1 -55 12
-59 21 -115 24 -154 8z"/>
<path d="M3900 3956 c0 -2 7 -7 16 -10 8 -3 12 -2 9 4 -6 10 -25 14 -25 6z"/>
<path d="M3920 3925 l-25 -14 32 -1 c25 0 31 4 27 15 -4 8 -7 15 -8 15 0 -1
-12 -7 -26 -15z"/>
<path d="M4000 3910 c0 -5 9 -10 21 -10 11 0 17 5 14 10 -3 6 -13 10 -21 10
-8 0 -14 -4 -14 -10z"/>
<path d="M3745 3862 c-27 -2 -54 -7 -59 -13 -6 -5 28 -9 92 -9 61 0 102 -4
102 -10 0 -16 -190 -15 -251 1 -26 6 -50 5 -90 -7 -77 -22 -172 -71 -187 -95
-15 -24 -10 -35 10 -23 17 11 71 5 79 -8 4 -5 9 2 11 16 5 26 -6 36 -15 14 -4
-10 -6 -10 -6 -1 -2 20 41 44 56 31 9 -7 13 -7 13 1 0 6 7 11 15 11 26 0 16
-27 -15 -40 -18 -8 -30 -20 -30 -31 0 -15 -8 -19 -42 -20 -75 -3 -86 -6 -114
-34 -24 -24 -27 -34 -25 -84 2 -76 11 -123 28 -139 7 -7 13 -23 13 -35 0 -12
9 -41 19 -64 25 -54 95 -154 88 -126 -3 15 1 23 14 26 11 3 22 1 25 -4 3 -5
14 -9 25 -9 10 0 19 -5 19 -10 0 -6 6 -10 13 -8 6 1 26 -6 44 -15 18 -9 41
-17 53 -17 11 0 20 -4 20 -9 0 -11 23 -12 88 -5 29 4 40 9 35 17 -4 7 2 5 12
-3 10 -8 16 -10 12 -3 -4 6 -2 15 4 18 6 4 13 -2 16 -15 5 -19 12 -21 68 -19
34 1 68 -1 75 -6 9 -5 11 -4 6 3 -4 7 -2 12 5 12 7 0 5 8 -6 20 -25 27 -7 25
24 -2 l25 -23 -17 27 c-22 36 -22 38 9 38 22 0 24 -2 14 -15 -10 -12 -6 -14
26 -13 42 1 84 31 62 44 -15 10 -121 5 -178 -7 -25 -6 -53 -11 -62 -13 -10 -1
-20 -5 -23 -8 -3 -3 -22 -2 -42 3 -20 4 -40 6 -45 3 -4 -3 -5 2 -2 10 4 11 19
16 48 16 49 0 77 14 50 24 -9 3 -25 4 -34 1 -9 -3 -23 1 -30 10 -10 13 -9 15
8 15 11 0 32 7 48 15 20 10 32 11 41 3 10 -8 13 -6 13 6 0 15 17 21 48 17 6
-1 12 3 12 8 0 6 14 17 30 26 31 16 35 12 31 -23 -1 -8 7 -16 18 -19 24 -6 28
-23 6 -23 -8 0 -15 5 -15 10 0 6 -8 10 -17 9 -11 0 -13 -3 -5 -6 21 -8 13 -22
-20 -32 -30 -8 -28 -9 25 -10 32 -1 56 -5 53 -10 -7 -11 45 -1 61 11 7 6 24 7
38 4 l25 -6 -23 23 c-12 12 -26 23 -32 24 -5 1 -23 4 -38 6 -15 2 -31 8 -35
12 -4 4 13 4 38 0 25 -4 60 -9 77 -10 29 -3 31 -2 18 12 -8 8 -15 21 -15 28 0
8 -10 23 -22 35 -12 11 -18 20 -14 20 4 0 1 7 -8 15 -8 8 -18 37 -22 63 -4 26
-14 52 -23 59 -12 9 -13 12 -2 13 8 0 11 6 7 17 -4 9 -1 20 6 25 10 6 7 10 -9
14 -15 4 -23 14 -23 28 -1 20 -52 84 -93 115 -16 12 -18 12 -15 0 2 -8 8 -18
13 -22 6 -5 4 -7 -5 -5 -8 3 -15 16 -15 30 -2 20 3 26 22 26 12 0 23 -5 23 -9
0 -5 16 -17 35 -26 20 -10 35 -24 35 -34 0 -12 6 -16 19 -12 12 3 24 -3 34
-17 14 -21 16 -21 36 -4 15 13 18 21 9 31 -6 7 -7 13 -3 13 5 0 0 9 -11 21
-10 12 -18 24 -17 28 0 3 -3 13 -8 21 -4 8 -9 11 -9 5 0 -5 -7 1 -16 14 -14
19 -23 22 -58 19 -28 -3 -46 0 -56 11 -15 16 -113 21 -245 13z m285 -52 c0 -5
-2 -10 -4 -10 -3 0 -8 5 -11 10 -3 6 -1 10 4 10 6 0 11 -4 11 -10z m-587 -177
c-7 -2 -21 -2 -30 0 -10 3 -4 5 12 5 17 0 24 -2 18 -5z m449 -86 c29 -7 58
-54 58 -92 0 -13 -10 -29 -22 -37 -27 -18 -98 -42 -104 -36 -2 3 3 19 12 37
18 35 12 115 -8 127 -8 5 -5 10 8 14 10 4 21 4 24 0 3 -4 17 -10 32 -13z
m-207 -6 c-40 -5 -52 -11 -62 -31 -17 -33 -16 -59 1 -92 17 -32 9 -35 -43 -17
-26 9 -31 16 -31 44 0 20 9 42 25 59 30 32 30 33 8 39 -10 3 20 4 67 4 68 0
75 -1 35 -6z m25 -381 c0 -5 -5 -10 -11 -10 -5 0 -7 5 -4 10 3 6 8 10 11 10 2
0 4 -4 4 -10z"/>
<path d="M3178 3843 c12 -2 32 -2 45 0 12 2 2 4 -23 4 -25 0 -35 -2 -22 -4z"/>
<path d="M3415 3844 c-11 -2 -55 -6 -98 -9 -44 -4 -75 -11 -71 -16 3 -6 -12
-7 -38 -5 -24 3 -34 3 -23 0 27 -8 43 -24 24 -24 -16 0 -49 -34 -49 -50 0 -6
8 -10 18 -10 13 0 14 -2 4 -9 -10 -6 -7 -12 13 -25 23 -15 25 -21 20 -63 -4
-38 -3 -44 8 -34 8 6 16 8 20 5 3 -3 11 14 18 38 8 23 18 48 24 54 5 6 20 22
32 35 31 34 46 46 71 53 12 4 22 11 22 15 0 4 6 8 13 9 6 0 37 10 67 21 l55
20 -55 -1 c-30 0 -64 -2 -75 -4z m-170 -144 c3 -5 1 -10 -4 -10 -6 0 -11 5
-11 10 0 6 2 10 4 10 3 0 8 -4 11 -10z"/>
<path d="M3058 3833 c7 -3 16 -2 19 1 4 3 -2 6 -13 5 -11 0 -14 -3 -6 -6z"/>
<path d="M2918 3823 c7 -3 16 -2 19 1 4 3 -2 6 -13 5 -11 0 -14 -3 -6 -6z"/>
<path d="M256 3791 c-6 -9 10 -36 21 -37 4 0 21 -6 36 -12 42 -18 108 4 76 24
-20 12 -129 32 -133 25z"/>
<path d="M4265 3709 c6 -80 20 -184 31 -221 3 -10 14 -18 25 -18 24 0 26 35 2
48 -14 9 -14 10 5 16 26 9 29 41 7 70 -8 11 -15 39 -15 63 0 46 -18 90 -45
113 -15 12 -16 6 -10 -71z"/>
<path d="M2940 3708 c0 -9 5 -20 10 -23 13 -8 13 5 0 25 -8 13 -10 13 -10 -2z"/>
<path d="M2970 3705 c0 -8 4 -15 10 -15 5 0 7 7 4 15 -4 8 -8 15 -10 15 -2 0
-4 -7 -4 -15z"/>
<path d="M4386 3691 c-8 -12 3 -214 14 -280 6 -30 10 -72 10 -93 0 -21 4 -38
8 -38 4 0 6 17 4 38 -6 50 5 38 13 -15 4 -27 2 -43 -5 -43 -5 0 -10 -4 -10
-10 0 -17 34 -90 43 -90 4 0 4 -8 -1 -17 -5 -10 -7 -38 -5 -62 2 -25 -1 -55
-8 -68 -7 -13 -9 -26 -6 -29 9 -9 39 64 71 174 29 99 36 214 16 253 -12 21
-30 20 -77 -3 -28 -14 -30 -12 -41 39 -10 42 -9 42 22 49 37 8 44 17 38 50 -3
19 -9 23 -25 18 -19 -6 -19 -5 -3 17 21 31 20 39 -5 39 -11 0 -18 4 -15 9 3 5
16 7 28 3 18 -4 20 -2 15 19 -4 13 -7 30 -7 37 0 14 -66 17 -74 3z m24 -31 c0
-11 -4 -20 -9 -20 -5 0 -7 9 -4 20 3 11 7 20 9 20 2 0 4 -9 4 -20z"/>
<path d="M0 3561 l0 -128 41 -47 c22 -25 44 -46 49 -46 4 0 11 52 15 116 7
109 9 118 37 149 27 31 28 34 11 44 -17 8 -132 41 -147 41 -3 0 -6 -58 -6
-129z"/>
<path d="M4843 3665 c-29 -20 -38 -66 -20 -102 8 -15 18 -59 22 -96 6 -57 5
-71 -10 -87 -10 -11 -24 -20 -32 -20 -8 0 -13 -11 -13 -28 0 -15 -6 -36 -14
-47 -19 -29 -25 -73 -11 -92 16 -22 33 -9 41 32 7 42 30 46 46 9 17 -37 -4
-130 -37 -164 -31 -33 -32 -47 -1 -61 25 -12 35 -52 39 -159 2 -25 8 -54 14
-65 6 -11 13 -42 17 -70 8 -65 54 -1092 54 -1210 0 -16 3 -74 7 -128 l8 -99
36 -15 c20 -9 43 -20 51 -25 8 -4 23 -11 33 -14 20 -7 21 -16 5 -32 -8 -8 -9
-12 -1 -12 6 0 13 5 15 12 6 17 88 -10 88 -29 0 -8 -4 -11 -10 -8 -6 3 -7 -1
-4 -9 8 -21 24 -10 24 15 0 20 0 20 28 1 15 -11 38 -23 52 -27 14 -4 35 -14
48 -22 18 -11 27 -12 38 -3 17 15 44 6 44 -13 0 -8 19 -22 43 -32 23 -9 50
-21 59 -26 10 -5 25 -9 34 -9 8 0 25 -6 37 -12 12 -7 38 -18 57 -24 19 -6 34
-16 32 -22 -1 -7 10 -12 27 -12 17 0 33 -4 36 -10 3 -5 15 -10 26 -10 11 0 41
-11 67 -24 26 -13 53 -21 60 -19 7 3 21 -2 30 -10 9 -8 34 -18 55 -22 l38 -7
-1 926 c-1 538 -6 941 -11 959 -5 18 -11 73 -13 122 -6 150 -17 259 -28 280
-6 11 -24 34 -40 52 -23 23 -29 38 -26 57 3 14 1 26 -4 26 -5 0 -6 5 -3 10 3
6 1 10 -5 10 -6 0 -8 5 -4 11 9 15 -16 60 -29 52 -6 -3 -7 -1 -4 4 4 6 -2 22
-13 36 -11 14 -20 30 -20 37 0 6 -4 9 -8 6 -5 -3 -18 2 -28 12 -10 9 -32 23
-49 31 -16 7 -41 19 -55 26 -43 23 -95 27 -156 14 -32 -7 -82 -13 -111 -13
-38 0 -54 -4 -58 -15 -8 -19 -7 -256 1 -287 7 -26 -29 -53 -42 -32 -4 6 -8 73
-10 149 -1 75 -6 143 -10 152 -11 18 -365 197 -391 197 -10 0 -28 -7 -40 -15z
m501 -777 c5 -23 8 -98 26 -653 17 -535 25 -829 25 -950 0 -113 -1 -120 -20
-120 -17 0 -20 7 -22 50 -1 28 -8 221 -17 430 -8 209 -20 535 -25 725 -6 190
-13 383 -15 430 -2 47 -1 91 1 98 8 21 42 14 47 -10z"/>
<path d="M3241 3578 c0 -10 -5 -18 -11 -18 -5 0 -10 -7 -10 -16 0 -8 -7 -22
-15 -30 -13 -14 -20 -43 -16 -68 1 -5 -5 -6 -14 -2 -14 5 -14 1 2 -27 10 -17
20 -34 23 -37 3 -3 5 -9 6 -15 2 -49 59 -188 81 -200 11 -6 17 -17 15 -25 -4
-11 -1 -10 12 3 9 9 20 33 23 52 7 42 13 44 35 8 19 -32 84 -106 72 -83 -4 8
-27 43 -50 77 -23 34 -45 72 -49 84 -6 17 -9 19 -16 8 -15 -22 -41 19 -36 55
2 17 -5 55 -16 85 -11 31 -23 81 -27 111 -4 30 -8 47 -9 38z"/>
<path d="M1693 3523 c-7 -3 -13 -17 -13 -33 0 -21 8 -34 33 -49 17 -11 45 -32
60 -47 l28 -26 -3 44 c-3 43 -3 43 -45 46 -39 3 -42 5 -45 36 -2 21 -8 31 -15
29z"/>
<path d="M4323 3387 c-6 -19 -7 -41 -3 -48 6 -8 11 0 15 24 10 50 1 67 -12 24z"/>
<path d="M1990 3270 c0 -5 5 -10 10 -10 6 0 10 5 10 10 0 6 -4 10 -10 10 -5 0
-10 -4 -10 -10z"/>
<path d="M3767 3133 c-13 -12 -7 -19 17 -19 15 0 22 5 19 13 -5 14 -25 17 -36
6z"/>
<path d="M2205 3070 c7 -21 -10 -29 -18 -7 -3 9 -7 9 -17 1 -9 -9 -5 -14 19
-19 17 -4 31 -10 31 -14 0 -4 7 -8 15 -8 8 0 12 4 9 9 -3 4 0 8 6 8 8 0 8 6 0
20 -6 11 -15 18 -21 15 -5 -4 -9 -1 -9 4 0 6 -5 11 -11 11 -6 0 -8 -9 -4 -20z"/>
<path d="M2290 3054 c0 -31 23 -28 28 4 2 15 -2 22 -12 22 -11 0 -16 -9 -16
-26z"/>
<path d="M2776 3033 c-6 -14 -5 -15 5 -6 7 7 10 15 7 18 -3 3 -9 -2 -12 -12z"/>
<path d="M2610 2906 c-19 -17 -106 -46 -141 -46 -21 0 -31 -8 -47 -40 -19 -39
-19 -40 0 -40 10 0 17 -4 14 -9 -3 -5 1 -11 9 -14 9 -4 12 -1 9 7 -4 10 5 11
41 6 25 -4 45 -3 45 2 0 4 5 7 12 6 7 -2 12 2 13 7 0 12 45 77 59 87 12 8 19
48 8 48 -4 0 -14 -6 -22 -14z"/>
<path d="M2030 2874 c0 -8 5 -12 10 -9 6 4 8 11 5 16 -9 14 -15 11 -15 -7z"/>
<path d="M2344 2838 c-5 -7 -2 -9 9 -5 9 3 17 2 19 -3 2 -5 14 -2 28 5 25 14
25 14 -12 15 -20 0 -40 -5 -44 -12z"/>
<path d="M2123 2521 c-1 -14 3 -17 18 -14 15 4 17 8 8 19 -16 19 -24 17 -26
-5z"/>
<path d="M2115 2410 c-3 -5 -1 -10 4 -10 6 0 11 5 11 10 0 6 -2 10 -4 10 -3 0
-8 -4 -11 -10z"/>
<path d="M4179 2338 c0 -18 -3 -42 -6 -53 -3 -11 -5 -35 -4 -54 1 -18 -4 -40
-10 -47 -6 -7 -8 -18 -5 -23 10 -15 32 -3 32 17 0 9 4 46 8 82 4 36 8 74 9 84
1 10 -4 21 -10 23 -9 3 -13 -7 -14 -29z"/>
<path d="M4070 2180 c0 -5 4 -10 9 -10 6 0 13 5 16 10 3 6 -1 10 -9 10 -9 0
-16 -4 -16 -10z"/>
<path d="M4131 2064 c0 -11 3 -14 6 -6 3 7 2 16 -1 19 -3 4 -6 -2 -5 -13z"/>
<path d="M4150 2030 c0 -5 5 -10 11 -10 5 0 7 5 4 10 -3 6 -8 10 -11 10 -2 0
-4 -4 -4 -10z"/>
<path d="M4087 1839 c-4 -16 -3 -18 9 -8 7 6 11 15 8 20 -8 13 -11 11 -17 -12z"/>
<path d="M3955 1711 c-3 -6 -4 -11 0 -11 3 0 1 -9 -5 -20 -7 -13 -7 -20 -1
-20 6 0 13 11 17 25 7 28 0 43 -11 26z"/>
<path d="M3900 1695 c-7 -8 -17 -12 -22 -8 -6 3 -9 0 -6 -8 8 -25 35 -22 40 6
6 29 5 30 -12 10z"/>
<path d="M4687 1679 c7 -7 15 -10 18 -7 3 3 -2 9 -12 12 -14 6 -15 5 -6 -5z"/>
<path d="M3941 1536 c-5 -13 -17 -26 -25 -29 -9 -4 -16 -14 -16 -23 0 -16 1
-16 19 0 11 10 24 31 30 47 12 35 4 39 -8 5z"/>
<path d="M4058 1553 c-2 -5 -1 -24 3 -43 l6 -35 2 43 c1 39 -3 52 -11 35z"/>
<path d="M91 1444 c0 -11 3 -14 6 -6 3 7 2 16 -1 19 -3 4 -6 -2 -5 -13z"/>
<path d="M3843 1413 c-7 -3 -13 -14 -13 -25 0 -18 1 -18 16 -4 18 18 16 35 -3
29z"/>
<path d="M3176 1387 c18 -26 34 -35 34 -19 0 4 -13 16 -27 26 l-27 20 20 -27z"/>
<path d="M4751 1334 c0 -11 3 -14 6 -6 3 7 2 16 -1 19 -3 4 -6 -2 -5 -13z"/>
<path d="M3218 1253 c7 -3 16 -2 19 1 4 3 -2 6 -13 5 -11 0 -14 -3 -6 -6z"/>
<path d="M3490 1246 c0 -8 5 -18 10 -21 6 -4 8 -11 5 -16 -11 -17 6 -30 20
-15 18 17 8 59 -12 52 -8 -3 -11 -1 -8 4 3 6 1 10 -4 10 -6 0 -11 -6 -11 -14z"/>
<path d="M76 1175 c-4 -14 -12 -25 -19 -25 -25 0 -57 -45 -57 -79 0 -30 2 -33
24 -27 19 5 29 0 45 -20 16 -21 23 -23 40 -15 52 28 63 79 31 149 -22 49 -54
58 -64 17z"/>
<path d="M3420 1125 c0 -17 -4 -23 -15 -19 -8 4 -12 11 -8 18 4 6 -1 5 -10 -3
-9 -7 -17 -18 -17 -23 0 -9 45 -6 55 4 10 10 14 48 4 48 -5 0 -9 -11 -9 -25z"/>
<path d="M3730 1140 c-12 -8 -10 -10 8 -10 13 0 20 4 17 10 -7 12 -6 12 -25 0z"/>
<path d="M5127 1133 c-4 -3 -7 -11 -7 -17 0 -6 5 -5 12 2 6 6 9 14 7 17 -3 3
-9 2 -12 -2z"/>
<path d="M3103 1117 c2 -12 47 -30 55 -23 2 2 -10 11 -27 19 -20 10 -30 11
-28 4z"/>
<path d="M5210 1090 c0 -11 2 -20 4 -20 13 0 36 13 36 21 0 4 -7 5 -17 2 -11
-4 -14 -3 -9 5 4 7 2 12 -3 12 -6 0 -11 -9 -11 -20z"/>
<path d="M3722 1088 c2 -6 11 -13 19 -16 11 -3 11 -1 -1 8 -12 10 -11 11 8 7
12 -3 22 -1 22 4 0 5 -12 9 -26 9 -15 0 -24 -5 -22 -12z"/>
<path d="M5272 1084 c-7 -8 -12 -20 -9 -27 2 -7 9 -2 16 11 15 28 11 36 -7 16z"/>
<path d="M5332 1064 c10 -10 20 -15 24 -12 3 4 -5 12 -18 18 -22 12 -22 12 -6
-6z"/>
<path d="M3960 1046 c0 -9 5 -16 10 -16 6 0 10 4 10 9 0 6 -4 13 -10 16 -5 3
-10 -1 -10 -9z"/>
<path d="M5305 1050 c-3 -5 1 -10 10 -10 9 0 13 5 10 10 -3 6 -8 10 -10 10 -2
0 -7 -4 -10 -10z"/>
<path d="M3696 996 c3 -9 11 -16 16 -16 13 0 5 23 -10 28 -7 2 -10 -2 -6 -12z"/>
<path d="M5390 990 c0 -5 5 -10 11 -10 5 0 7 5 4 10 -3 6 -8 10 -11 10 -2 0
-4 -4 -4 -10z"/>
<path d="M18 972 c-11 -2 -18 -13 -18 -25 l0 -21 22 22 c24 23 23 30 -4 24z"/>
<path d="M5518 959 c-3 -8 3 -22 13 -32 19 -21 21 -5 3 27 -8 14 -12 15 -16 5z"/>
<path d="M3470 740 c0 -11 5 -20 10 -20 6 0 10 9 10 20 0 11 -4 20 -10 20 -5
0 -10 -9 -10 -20z"/>
<path d="M3332 685 c-11 -23 -10 -25 11 -25 16 0 18 3 8 9 -8 5 -9 10 -2 12 6
2 7 10 2 17 -5 9 -11 6 -19 -13z"/>
<path d="M3450 679 c0 -5 5 -7 10 -4 6 3 10 8 10 11 0 2 -4 4 -10 4 -5 0 -10
-5 -10 -11z"/>
<path d="M3770 644 c0 -8 5 -12 10 -9 6 4 8 11 5 16 -9 14 -15 11 -15 -7z"/>
<path d="M3375 640 c-3 -5 -1 -10 4 -10 6 0 11 5 11 10 0 6 -2 10 -4 10 -3 0
-8 -4 -11 -10z"/>
<path d="M3441 634 c0 -11 3 -14 6 -6 3 7 2 16 -1 19 -3 4 -6 -2 -5 -13z"/>
<path d="M3486 637 c3 -10 9 -15 12 -12 3 3 0 11 -7 18 -10 9 -11 8 -5 -6z"/>
<path d="M3402 620 c-12 -20 -6 -26 13 -12 12 9 18 32 7 32 -4 0 -13 -9 -20
-20z"/>
<path d="M3390 502 c0 -5 7 -9 15 -9 8 0 12 4 9 9 -3 4 -9 8 -15 8 -5 0 -9 -4
-9 -8z"/>
<path d="M3315 480 c3 -5 1 -10 -4 -10 -6 0 -11 -7 -11 -15 0 -8 3 -15 8 -15
11 0 32 37 25 44 -10 10 -25 7 -18 -4z"/>
<path d="M3343 453 c-7 -2 -13 -9 -13 -14 0 -6 4 -8 9 -5 5 4 11 3 14 -1 2 -5
2 -3 1 4 -2 6 2 14 9 17 7 2 8 4 2 4 -5 0 -16 -2 -22 -5z"/>
<path d="M3275 430 c-3 -5 -1 -10 4 -10 6 0 11 5 11 10 0 6 -2 10 -4 10 -3 0
-8 -4 -11 -10z"/>
</g>
</svg>
